<svg width="30" height="29" viewBox="0 0 30 29" fill="none" xmlns="http://www.w3.org/2000/svg">
<path d="M15.2323 4.44444V2.83951H17.8117V0.469136H15.2323V0H14.7677V0.469136V2.83951V4.44444L9.25428 8.98765H20.7457L15.2323 4.44444ZM15 8.25926C14.3399 8.25926 13.802 7.71605 13.802 7.04938C13.802 6.38272 14.3399 5.83951 15 5.83951C15.6601 5.83951 16.198 6.38272 16.198 7.04938C16.198 7.71605 15.6601 8.25926 15 8.25926ZM29.1198 26.3827L29.1443 17H20.7457V9.46914H15H9.25428V17H0.843521L0.867971 26.3827H0V29H15H30V26.3827H29.1198ZM3.56968 25.4321H2.39609V19H3.56968V25.4321ZM5.6846 25.4321H4.511V19H5.6846V25.4321ZM7.78729 25.4321H6.61369V19H7.78729V25.4321ZM12.5428 26.8519H10.8924V13.0494H12.5306L12.5428 26.8519ZM15.8191 26.8519H15H14.1809V13.0494H15H15.8191V26.8519ZM19.1076 26.8519H17.4694V13.0494H19.1076V26.8519ZM23.3863 25.4321H22.2127V19H23.3863V25.4321ZM25.489 25.4321H24.3154V19H25.489V25.4321ZM27.6039 25.4321H26.4303V19H27.6039V25.4321Z" fill="#C3CAD9"/>
</svg>
