<?xml version="1.0" encoding="UTF-8"?>
<svg version="1.1" xmlns="http://www.w3.org/2000/svg" width="512" height="512">
<path d="M0 0 C0.94630946 -0.0060911 1.89261893 -0.01218221 2.86760443 -0.01845789 C6.02877729 -0.03506581 9.18954637 -0.03031514 12.35075378 -0.0255127 C14.62125059 -0.03285433 16.89174365 -0.04144083 19.16223145 -0.05117798 C25.32348196 -0.07339368 31.48459873 -0.07632458 37.6458838 -0.07443047 C42.79241932 -0.07431076 47.93892652 -0.08287516 53.08545417 -0.09120798 C65.92376478 -0.11154215 78.76197718 -0.11259214 91.60029449 -0.10540086 C102.73501358 -0.09982773 113.86950242 -0.12064361 125.00416771 -0.15376133 C136.45149497 -0.1875433 147.89866803 -0.20218701 159.34605426 -0.1980443 C165.767158 -0.19597785 172.18803246 -0.20144037 178.60909462 -0.22593689 C184.64946666 -0.24821975 190.68936008 -0.24631275 196.72973442 -0.22600937 C198.94281003 -0.22260201 201.15591796 -0.22767649 203.36894989 -0.24199295 C226.29436517 -0.38003183 226.29436517 -0.38003183 234.5279665 7.38419342 C240.24440541 13.28140676 242.80424697 19.23695051 242.75846863 27.43127441 C242.75890671 28.0955394 242.75934479 28.75980438 242.75979614 29.44419861 C242.75772573 31.61411152 242.73447975 33.78322699 242.71086121 35.95300293 C242.70525898 37.46757078 242.70099184 38.98214411 242.69799805 40.49671936 C242.68659847 44.46372755 242.65717417 48.43040099 242.62388611 52.39727783 C242.59307916 56.45291619 242.57947011 60.50860916 242.56437683 64.56433105 C242.5322991 72.50784325 242.48116283 80.45108445 242.41789246 88.39440918 C243.3611438 88.38552673 244.30439514 88.37664429 245.27622986 88.36749268 C254.16346706 88.28642227 263.0506293 88.22645131 271.93815231 88.18716049 C276.50740209 88.16628153 281.07635348 88.13795847 285.64543152 88.09265137 C290.05450118 88.0492043 294.46328376 88.0252744 298.87255096 88.01490021 C300.55510732 88.00750675 302.23764789 87.99306901 303.92008209 87.97148895 C306.27614346 87.94246915 308.63101719 87.93845243 310.98722839 87.94030762 C311.68350342 87.92592651 312.37977844 87.91154541 313.09715271 87.89672852 C316.23301862 87.92346299 318.06230126 88.12656658 320.59653854 90.03543472 C322.94695263 93.07963539 322.92064239 94.79606511 322.92582703 98.61901855 C322.94274597 100.53702271 322.94274597 100.53702271 322.96000671 102.49377441 C322.95222969 103.9085716 322.94403702 105.32336655 322.93547058 106.73815918 C322.94089137 108.22978397 322.9480138 109.72140341 322.95671082 111.2130127 C322.97495249 115.26263546 322.96787335 119.31185079 322.95519447 123.36148071 C322.9450711 127.59837954 322.9544583 131.83524336 322.96073914 136.07214355 C322.96801749 143.18744168 322.95842297 150.30257376 322.93937683 157.41784668 C322.91760765 165.64543718 322.92465889 173.87263121 322.94668245 182.1002121 C322.96483116 189.16275172 322.96739739 196.22517195 322.95692778 203.28772736 C322.9506899 207.50654093 322.9498652 211.72516811 322.96307373 215.94396973 C322.97462401 219.91021291 322.96662207 223.87594467 322.9434967 227.84213257 C322.93820514 229.29819896 322.93973111 230.75430835 322.94854736 232.21035767 C322.9594668 234.1968228 322.94334946 236.18338194 322.92582703 238.1697998 C322.92356487 239.83782654 322.92356487 239.83782654 322.92125702 241.53955078 C322.41789246 244.39440918 322.41789246 244.39440918 320.85056305 246.75506592 C317.5869442 248.95437378 314.78787288 248.92701056 310.98722839 248.84851074 C309.87444519 248.8493869 309.87444519 248.8493869 308.73918152 248.85028076 C306.29306344 248.84749943 303.84817199 248.81640704 301.40226746 248.78503418 C299.70405239 248.77757192 298.00582869 248.77187891 296.30760193 248.7678833 C291.84233236 248.75262569 287.37758493 248.71334307 282.91252136 248.66906738 C278.35448774 248.62811725 273.79636959 248.60987285 269.23820496 248.58972168 C260.29787164 248.54684871 251.3579255 248.47859603 242.41789246 248.39440918 C242.42250142 249.56024221 242.42711039 250.72607525 242.43185902 251.92723656 C242.54023648 279.62521318 242.62263907 307.32316851 242.6732191 335.02131351 C242.67947235 338.43327676 242.68594399 341.84523956 242.69255066 345.25720215 C242.69386221 345.93643921 242.69517376 346.61567628 242.69652506 347.31549628 C242.71825927 358.30190531 242.75766975 369.28818302 242.80365644 380.27451424 C242.8504765 391.5543341 242.87782549 402.83408857 242.88833493 414.11401045 C242.89484892 420.44695066 242.91014108 426.7795934 242.94654274 433.1124382 C242.9805451 439.07633708 242.9909366 445.03981665 242.98343086 451.00380325 C242.98480349 453.18947887 242.99471027 455.37516887 243.01391983 457.5607605 C243.20357003 480.25663082 243.20357003 480.25663082 235.42792225 488.50548363 C228.59332191 495.12760109 222.07814926 496.84506422 212.83578491 496.78881836 C211.41632072 496.79795501 211.41632072 496.79795501 209.96818048 496.80727625 C206.80700762 496.82388417 203.64623854 496.8191335 200.48503113 496.81433105 C198.21453433 496.82167269 195.94404126 496.83025919 193.67355347 496.83999634 C187.51230295 496.86221204 181.35118618 496.86514294 175.18990111 496.86324883 C170.04336559 496.86312912 164.89685839 496.87169352 159.75033075 496.88002634 C146.91202014 496.90036051 134.07380773 496.9014105 121.23549042 496.89421922 C110.10077133 496.88864609 98.96628249 496.90946197 87.8316172 496.94257969 C76.38428995 496.97636166 64.93711688 496.99100537 53.48973066 496.98686266 C47.06862692 496.98479621 40.64775246 496.99025873 34.22669029 497.01475525 C28.18631825 497.03703811 22.14642483 497.0351311 16.10605049 497.01482773 C13.89297488 497.01142037 11.67986695 497.01649485 9.46683502 497.03081131 C-13.45858026 497.16885019 -13.45858026 497.16885019 -21.69218159 489.40462494 C-28.29324082 482.59481639 -30.03576308 476.11052509 -29.94287109 466.89686584 C-29.94543437 465.95983493 -29.94799764 465.02280402 -29.95063859 464.05737823 C-29.95556679 460.92808989 -29.93909924 457.7992876 -29.92268372 454.67004395 C-29.92183724 452.42273469 -29.92231299 450.17542461 -29.92401123 447.92811584 C-29.92487179 441.83361062 -29.90723597 435.7392826 -29.88628936 429.64481854 C-29.86753282 423.27334826 -29.86577292 416.90187389 -29.86221313 410.53038025 C-29.85394891 399.83829319 -29.83521157 389.14627611 -29.8084259 378.45422363 C-29.78087062 367.44348474 -29.75964425 356.4327635 -29.74690247 345.42199707 C-29.7461143 344.74280114 -29.74532612 344.06360522 -29.74451407 343.36382759 C-29.74059884 339.9563539 -29.73680774 336.54888008 -29.73307836 333.14140618 C-29.70200012 304.892362 -29.64895612 276.64338963 -29.58210754 248.39440918 C-30.52535889 248.40329163 -31.46861023 248.41217407 -32.44044495 248.42132568 C-41.32768215 248.50239609 -50.21484439 248.56236705 -59.1023674 248.60165787 C-63.67161718 248.62253683 -68.24056857 248.65085989 -72.80964661 248.69616699 C-77.21871627 248.73961406 -81.62749885 248.76354396 -86.03676605 248.77391815 C-87.71932241 248.78131161 -89.40186297 248.79574935 -91.08429718 248.81732941 C-93.44035855 248.84634921 -95.79523227 248.85036593 -98.15144348 248.84851074 C-99.19585602 248.8700824 -99.19585602 248.8700824 -100.2613678 248.89208984 C-103.46475641 248.86477971 -105.33599405 248.56026168 -108.01477814 246.75506592 C-110.03810605 243.70760018 -110.0850935 241.81872439 -110.09004211 238.1697998 C-110.10132141 236.89113037 -110.11260071 235.61246094 -110.1242218 234.29504395 C-110.11644478 232.88024676 -110.10825211 231.46545181 -110.09968567 230.05065918 C-110.10510646 228.55903439 -110.11222888 227.06741495 -110.1209259 225.57580566 C-110.13916758 221.5261829 -110.13208844 217.47696757 -110.11940956 213.42733765 C-110.10928619 209.19043882 -110.11867339 204.953575 -110.12495422 200.7166748 C-110.13223258 193.60137668 -110.12263806 186.4862446 -110.10359192 179.37097168 C-110.08182273 171.14338118 -110.08887398 162.91618715 -110.11089754 154.68860626 C-110.12904625 147.62606664 -110.13161248 140.56364641 -110.12114286 133.501091 C-110.11490499 129.28227743 -110.11408028 125.06365025 -110.12728882 120.84484863 C-110.1388391 116.87860545 -110.13083716 112.91287369 -110.10771179 108.94668579 C-110.10242022 107.4906194 -110.1039462 106.03451001 -110.11276245 104.57846069 C-110.12368189 102.59199556 -110.10756455 100.60543642 -110.09004211 98.61901855 C-110.08853401 97.50700073 -110.08702591 96.39498291 -110.08547211 95.24926758 C-109.46253037 91.71622099 -108.41983103 90.53187278 -105.58210754 88.39440918 C-102.96092425 88.01985937 -100.76640892 87.88629722 -98.15144348 87.94030762 C-97.40958801 87.93972351 -96.66773254 87.9391394 -95.90339661 87.9385376 C-93.45727853 87.94131893 -91.01238707 87.97241132 -88.56648254 88.00378418 C-86.86826747 88.01124644 -85.17004378 88.01693944 -83.47181702 88.02093506 C-79.00654745 88.03619267 -74.54180001 88.07547529 -70.07673645 88.11975098 C-65.51870283 88.16070111 -60.96058467 88.17894551 -56.40242004 88.19909668 C-47.46208673 88.24196964 -38.52214059 88.31022233 -29.58210754 88.39440918 C-29.5932106 87.56470612 -29.60431366 86.73500305 -29.61575317 85.88015747 C-29.71633017 78.02494259 -29.79226163 70.16994688 -29.8411684 62.31423378 C-29.86715824 58.27638697 -29.90235859 54.23907638 -29.95930481 50.20153809 C-30.01400838 46.29815854 -30.04360771 42.39529164 -30.05649376 38.49155807 C-30.06566554 37.00930089 -30.08357472 35.52706879 -30.11075783 34.0450325 C-30.28533151 24.1241252 -29.63998941 15.82094427 -22.59182739 8.25906372 C-15.71318224 1.68175643 -9.25680644 -0.05633375 0 0 Z M-10.95710754 21.83190918 C-22.84868263 40.58400835 -13.58210754 66.18966236 -13.58210754 88.39440918 C65.61789246 88.39440918 144.81789246 88.39440918 226.41789246 88.39440918 C229.32106529 53.99062404 229.32106529 53.99062404 223.41789246 21.39440918 C218.86313831 16.9564436 215.28389557 16.26615679 209.09855652 16.28088379 C207.50735992 16.28099709 207.50735992 16.28099709 205.88401794 16.28111267 C204.74535278 16.28627396 203.60668762 16.29143524 202.43351746 16.29675293 C201.26278687 16.29816788 200.09205627 16.29958282 198.885849 16.30104065 C195.14650416 16.30663828 191.4072192 16.31919038 187.66789246 16.33190918 C185.13273707 16.33692448 182.59758075 16.34148734 180.06242371 16.34558105 C173.84755953 16.35660694 167.63273027 16.37334274 161.41789246 16.39440918 C159.05984404 23.29417684 159.05984404 23.29417684 157.13664246 30.32409668 C156.93425964 31.13878418 156.73187683 31.95347168 156.52336121 32.79284668 C156.11430642 34.46601273 155.71079776 36.14054299 155.31242371 37.81628418 C155.11004089 38.6232373 154.90765808 39.43019043 154.69914246 40.26159668 C154.52447449 40.98459961 154.34980652 41.70760254 154.16984558 42.45251465 C153.20519142 44.94370269 152.62479146 45.82774127 150.41789246 47.39440918 C147.55532097 47.69062809 144.91028082 47.80413077 142.04679871 47.78259277 C141.1928653 47.78784973 140.33893188 47.79310669 139.4591217 47.79852295 C136.63269328 47.81174108 133.80682674 47.8029785 130.98039246 47.79284668 C129.01888419 47.79486689 127.05737666 47.79777789 125.09587097 47.80154419 C120.98341222 47.80597 116.87114883 47.79952819 112.75871277 47.78552246 C107.48237558 47.76843047 102.20649617 47.77827028 96.93017578 47.79623985 C92.87932372 47.80707073 88.82858052 47.80363454 84.77772522 47.79585648 C82.83202562 47.79385254 80.88631619 47.79632049 78.94062805 47.80329514 C76.22314705 47.81089815 73.50641156 47.7993217 70.78898621 47.78259277 C69.98162018 47.78866547 69.17425415 47.79473816 68.34242249 47.80099487 C62.91926204 47.73901843 62.91926204 47.73901843 60.45515442 46.04534912 C58.89503895 43.56221849 58.32394065 41.0731553 57.62882996 38.23034668 C57.32718933 37.0263623 57.02554871 35.82237793 56.71476746 34.58190918 C56.41054871 33.32378418 56.10632996 32.06565918 55.79289246 30.76940918 C55.17855463 28.27651769 54.5615174 25.78428933 53.94132996 23.29284668 C53.67239929 22.18602539 53.40346863 21.0792041 53.12638855 19.93884277 C52.66593885 17.47861744 52.66593885 17.47861744 51.41789246 16.39440918 C49.7981147 16.28531616 48.17361913 16.24534839 46.55021667 16.23327637 C45.51178619 16.22366882 44.47335571 16.21406128 43.40345764 16.2041626 C41.70517319 16.19778778 41.70517319 16.19778778 39.97257996 16.19128418 C38.81420624 16.18558411 37.65583252 16.17988403 36.46235657 16.17401123 C34.00255756 16.164541 31.54274575 16.15801927 29.08293152 16.1541748 C25.32977348 16.14450421 21.57717099 16.11351363 17.82414246 16.08190918 C15.43612488 16.07537594 13.04810338 16.07012673 10.66007996 16.06628418 C9.54003571 16.05393738 8.41999146 16.04159058 7.26600647 16.02886963 C-0.03469541 16.04959149 -5.6238652 16.35831835 -10.95710754 21.83190918 Z M69.41789246 16.39440918 C70.88640138 26.54734529 70.88640138 26.54734529 73.41789246 32.39440918 C95.19789246 32.39440918 116.97789246 32.39440918 139.41789246 32.39440918 C142.56696365 23.84162278 142.56696365 23.84162278 143.41789246 16.39440918 C118.99789246 16.39440918 94.57789246 16.39440918 69.41789246 16.39440918 Z M-93.58210754 104.39440918 C-93.58210754 146.63440918 -93.58210754 188.87440918 -93.58210754 232.39440918 C-80.62316223 232.43179199 -67.66421692 232.4691748 -54.31257629 232.50769043 C-46.1231123 232.53795148 -37.93366269 232.56896413 -29.74421692 232.60339355 C-16.73373187 232.65795038 -3.72328684 232.70935982 9.28727722 232.74084473 C18.76147885 232.76378592 28.23557612 232.79714029 37.70969504 232.84311074 C42.7282913 232.86709542 47.74678386 232.88578975 52.76543617 232.89202309 C57.4858485 232.8980503 62.20599534 232.91796396 66.92630959 232.94868469 C68.66175497 232.95750299 70.39723499 232.96117971 72.13270187 232.95941734 C74.49665572 232.95777422 76.8597909 232.97438026 79.22363281 232.99568176 C80.26108107 232.9884104 80.26108107 232.9884104 81.31948787 232.98099214 C84.09378798 233.02243911 85.96300376 233.06745437 88.2544508 234.71444988 C90.21456569 237.54477078 91.70322755 240.60232221 93.21086121 243.68737793 C93.56175308 244.39340652 93.91264496 245.09943512 94.27416992 245.82685852 C95.3902556 248.07578165 96.49791012 250.3287389 97.60539246 252.58190918 C98.36200112 254.11017777 99.11915637 255.63817589 99.87687683 257.16589355 C101.73023192 260.90562675 103.57603803 264.64899931 105.41789246 268.39440918 C106.07789246 268.39440918 106.73789246 268.39440918 107.41789246 268.39440918 C107.92239929 267.36968506 108.42690613 266.34496094 108.94670105 265.28918457 C110.81547897 261.4974339 112.69212799 257.70962568 114.57121277 253.92297363 C115.38424883 252.28179113 116.19513019 250.63953939 117.00382996 248.99621582 C118.16487838 246.63783621 119.333556 244.28337794 120.50382996 241.92956543 C120.86536163 241.19101822 121.22689331 240.45247101 121.59938049 239.69154358 C124.19014904 234.50828089 124.19014904 234.50828089 126.41789246 233.39440918 C128.78520044 233.28703615 131.12387777 233.23952561 133.49189758 233.2361908 C134.22864586 233.23125282 134.96539413 233.22631484 135.72446811 233.22122723 C138.20576997 233.20580679 140.68704587 233.19747935 143.16838074 233.18908691 C144.94205455 233.17951196 146.71572606 233.16950211 148.48939514 233.15908813 C153.3155544 233.13199155 158.14172348 233.11100777 162.96791697 233.09108615 C168.00748401 233.06925586 173.04702061 233.04185274 178.08656311 233.01502991 C187.63462465 232.96506295 197.18270305 232.920139 206.73079765 232.87700754 C219.62963206 232.81845013 232.52842644 232.75214181 245.42722511 232.68625736 C265.75742062 232.58262007 286.0876503 232.48937254 306.41789246 232.39440918 C306.41789246 190.15440918 306.41789246 147.91440918 306.41789246 104.39440918 C174.41789246 104.39440918 42.41789246 104.39440918 -93.58210754 104.39440918 Z M-13.58210754 248.39440918 C-13.64981424 276.95795387 -13.7050834 305.52143365 -13.73754406 334.08503819 C-13.75301635 347.34745213 -13.77411289 360.6098127 -13.8084259 373.87219238 C-13.83831706 385.43097514 -13.85767991 396.98971924 -13.86437303 408.54853958 C-13.86828574 414.66947365 -13.87748888 420.79029712 -13.89929771 426.91119576 C-13.91965825 432.67228432 -13.92594215 438.43321671 -13.92143059 444.19433784 C-13.92225597 446.30869393 -13.9282241 448.42305524 -13.93972397 450.53738022 C-13.95466111 453.42530408 -13.9510565 456.31263915 -13.94287109 459.20057678 C-13.95160962 460.03619552 -13.96034814 460.87181425 -13.96935147 461.73275477 C-13.92882537 467.02676293 -13.0730761 470.6964002 -10.58210754 475.39440918 C-5.1485623 480.68863275 -0.22972075 480.54250804 7.05200195 480.53485107 C7.932528 480.5378222 8.81305405 480.54079332 9.72026271 480.54385448 C12.67652973 480.55253962 15.63275625 480.55404957 18.58903503 480.55554199 C20.70632005 480.56017026 22.82360424 480.56519494 24.94088745 480.57058716 C30.69713505 480.58371155 36.45337098 480.5901561 42.2096312 480.59459782 C45.80513749 480.59752824 49.40064057 480.60163298 52.99614525 480.60610199 C64.24350718 480.6197765 75.49086181 480.62944361 86.73823148 480.63330388 C99.72585369 480.63778583 112.71337071 480.65534036 125.70096093 480.68430448 C135.73758816 480.70591142 145.77418577 480.71600762 155.81083602 480.717345 C161.80650638 480.71839365 167.80207787 480.72431452 173.79772377 480.74216461 C179.43740197 480.75862833 185.07690677 480.76080898 190.71660042 480.7520256 C192.78580438 480.75125435 194.8550176 480.75560961 196.92419815 480.76548386 C199.75061629 480.77818007 202.57641815 480.77233908 205.40283203 480.76190186 C206.62882173 480.77398646 206.62882173 480.77398646 207.87957889 480.7863152 C213.12392948 480.74107345 216.7606277 479.85419595 221.41789246 477.39440918 C226.76539154 471.90618644 226.5635125 466.91414939 226.53814697 459.56134033 C226.5390014 458.65954111 226.53985582 457.75774189 226.54073614 456.82861543 C226.54238592 453.80072191 226.53687774 450.77288355 226.53141785 447.74499512 C226.53113584 445.576945 226.53129397 443.40889479 226.53186035 441.24084473 C226.5321478 435.34869919 226.52625947 429.45657392 226.51928639 423.5644331 C226.5130442 417.40914703 226.51244837 411.25386052 226.51126099 405.09857178 C226.50815023 393.43976406 226.49994027 381.7809657 226.4899115 370.1221621 C226.47874244 356.85025524 226.47323791 343.57834845 226.46821606 330.30643797 C226.45775746 303.00242199 226.43941514 275.69841883 226.41789246 248.39440918 C196.38789246 248.39440918 166.35789246 248.39440918 135.41789246 248.39440918 C127.93209396 263.48479397 127.93209396 263.48479397 120.45939636 278.58166504 C119.52155891 280.46609815 118.58327592 282.35030962 117.64445496 284.23425293 C117.15807556 285.22235962 116.67169617 286.21046631 116.170578 287.22851562 C115.70385681 288.16232056 115.23713562 289.09612549 114.75627136 290.05822754 C114.35212006 290.87319199 113.94796875 291.68815643 113.53157043 292.52781677 C112.41789246 294.39440918 112.41789246 294.39440918 110.41789246 295.39440918 C102.97709824 295.86684056 102.97709824 295.86684056 100.94210815 294.14762878 C99.24970163 292.20094873 98.2032208 290.32550508 97.05778503 288.01477051 C96.61148743 287.12181274 96.16518982 286.22885498 95.70536804 285.30883789 C95.24569641 284.37414673 94.78602478 283.43945557 94.31242371 282.47644043 C93.88296448 281.61450073 93.45350525 280.75256104 93.0110321 279.86450195 C91.41090512 276.64857015 89.82127421 273.42742451 88.23039246 270.20690918 C82.87820496 259.40972168 82.87820496 259.40972168 77.41789246 248.39440918 C47.38789246 248.39440918 17.35789246 248.39440918 -13.58210754 248.39440918 Z " fill="#000000" transform="translate(149.5821075439453,7.6055908203125)"/>
<path d="M0 0 C0.85247314 -0.00700928 1.70494629 -0.01401855 2.58325195 -0.02124023 C5.3995832 -0.03883756 8.21490864 -0.02719147 11.03125 -0.01367188 C12.98893425 -0.01636629 14.9466172 -0.02024829 16.90429688 -0.02526855 C21.00664007 -0.03116595 25.10863482 -0.02259281 29.2109375 -0.00390625 C34.47045628 0.01888337 39.72915864 0.00576159 44.98864746 -0.01819611 C49.0309871 -0.03264751 53.07313305 -0.0280511 57.11547852 -0.01768494 C59.05476986 -0.01501583 60.99407877 -0.01829385 62.93334961 -0.02760315 C65.6435405 -0.03775789 68.35240775 -0.02228315 71.0625 0 C71.86469971 -0.00809692 72.66689941 -0.01619385 73.4934082 -0.02453613 C76.83059518 0.02631901 79.14515119 0.28516382 82.02819824 2.02062988 C84.17992939 5.59519827 84.08972046 8.93493567 84.04882812 12.98632812 C84.0558374 13.83880127 84.06284668 14.69127441 84.07006836 15.56958008 C84.08766568 18.38591132 84.0760196 21.20123676 84.0625 24.01757812 C84.06519442 25.97526238 84.06907642 27.93294533 84.07409668 29.890625 C84.07999408 33.99296819 84.07142093 38.09496294 84.05273438 42.19726562 C84.02994475 47.45678441 84.04306653 52.71548676 84.06702423 57.97497559 C84.08147563 62.01731523 84.07687923 66.05946118 84.06651306 70.10180664 C84.06384396 72.04109799 84.06712197 73.9804069 84.07643127 75.91967773 C84.08658602 78.62986863 84.07111128 81.33873587 84.04882812 84.04882812 C84.05692505 84.85102783 84.06502197 85.65322754 84.07336426 86.47973633 C84.02250912 89.81692331 83.76366431 92.13147931 82.02819824 95.01452637 C78.45362985 97.16625751 75.11389246 97.07604858 71.0625 97.03515625 C70.21002686 97.04216553 69.35755371 97.0491748 68.47924805 97.05639648 C65.6629168 97.07399381 62.84759136 97.06234772 60.03125 97.04882812 C58.07356575 97.05152254 56.1158828 97.05540454 54.15820312 97.0604248 C50.05585993 97.0663222 45.95386518 97.05774906 41.8515625 97.0390625 C36.59204372 97.01627288 31.33334136 97.02939466 26.07385254 97.05335236 C22.0315129 97.06780376 17.98936695 97.06320735 13.94702148 97.05284119 C12.00773014 97.05017208 10.06842123 97.0534501 8.12915039 97.0627594 C5.4189595 97.07291414 2.71009225 97.0574394 0 97.03515625 C-1.20329956 97.04730164 -1.20329956 97.04730164 -2.4309082 97.05969238 C-5.76809518 97.00883724 -8.08265119 96.74999243 -10.96569824 95.01452637 C-13.11742939 91.43995798 -13.02722046 88.10022058 -12.98632812 84.04882812 C-12.9933374 83.19635498 -13.00034668 82.34388184 -13.00756836 81.46557617 C-13.02516568 78.64924493 -13.0135196 75.83391949 -13 73.01757812 C-13.00269442 71.05989387 -13.00657642 69.10221092 -13.01159668 67.14453125 C-13.01749408 63.04218806 -13.00892093 58.94019331 -12.99023438 54.83789062 C-12.96744475 49.57837184 -12.98056653 44.31966949 -13.00452423 39.06018066 C-13.01897563 35.01784102 -13.01437923 30.97569507 -13.00401306 26.93334961 C-13.00134396 24.99405826 -13.00462197 23.05474935 -13.01393127 21.11547852 C-13.02408602 18.40528762 -13.00861128 15.69642038 -12.98632812 12.98632812 C-12.99442505 12.18412842 -13.00252197 11.38192871 -13.01086426 10.55541992 C-12.96000912 7.21823294 -12.70116431 4.90367694 -10.96569824 2.02062988 C-7.39112985 -0.13110126 -4.05139246 -0.04089233 0 0 Z M3.53125 16.51757812 C3.53125 37.63757813 3.53125 58.75757813 3.53125 80.51757812 C24.65125 80.51757812 45.77125 80.51757812 67.53125 80.51757812 C67.53125 59.39757812 67.53125 38.27757812 67.53125 16.51757812 C46.41125 16.51757812 25.29125 16.51757812 3.53125 16.51757812 Z " fill="#000000" transform="translate(356.46875,127.482421875)"/>
<path d="M0 0 C1.00853027 -0.00700928 2.01706055 -0.01401855 3.05615234 -0.02124023 C6.39188114 -0.03885406 9.72676248 -0.02718497 13.0625 -0.01367188 C15.37890791 -0.0163658 17.69531472 -0.02024739 20.01171875 -0.02526855 C24.86729698 -0.03116822 29.72258096 -0.02258526 34.578125 -0.00390625 C40.80614646 0.01888316 47.03347845 0.00576265 53.26147461 -0.01819611 C58.04497485 -0.0326412 62.82831127 -0.02805393 67.61181641 -0.01768494 C69.90836671 -0.0150141 72.20493183 -0.01829988 74.50146484 -0.02760315 C77.7097114 -0.03774714 80.91683706 -0.02229671 84.125 0 C85.55271729 -0.01214539 85.55271729 -0.01214539 87.00927734 -0.02453613 C93.35603861 0.05729722 93.35603861 0.05729722 96.65124512 2.20422363 C98.37656069 5.03239208 98.56927631 6.74319837 98.58007812 10.04882812 C98.59268677 11.15677734 98.60529541 12.26472656 98.61828613 13.40625 C98.61018921 14.59798828 98.60209229 15.78972656 98.59375 17.01757812 C98.59949036 18.85932617 98.59949036 18.85932617 98.60534668 20.73828125 C98.60806842 23.33399272 98.60068911 25.92973149 98.58398438 28.52539062 C98.56258075 32.50257412 98.58377963 36.47795094 98.609375 40.45507812 C98.60673177 42.97591545 98.60160691 45.49675166 98.59375 48.01757812 C98.60184692 49.20931641 98.60994385 50.40105469 98.61828613 51.62890625 C98.60567749 52.73685547 98.59306885 53.84480469 98.58007812 54.98632812 C98.57689575 55.96021484 98.57371338 56.93410156 98.57043457 57.9375 C98.0625 60.51757812 98.0625 60.51757812 96.65124512 62.83093262 C92.63710617 65.44626519 88.81899733 65.07508741 84.125 65.03515625 C83.11646973 65.04216553 82.10793945 65.0491748 81.06884766 65.05639648 C77.73311886 65.07401031 74.39823752 65.06234122 71.0625 65.04882812 C68.74609209 65.05152205 66.42968528 65.05540364 64.11328125 65.0604248 C59.25770302 65.06632447 54.40241904 65.05774151 49.546875 65.0390625 C43.31885354 65.01627309 37.09152155 65.0293936 30.86352539 65.05335236 C26.08002515 65.06779745 21.29668873 65.06321018 16.51318359 65.05284119 C14.21663329 65.05017035 11.92006817 65.05345613 9.62353516 65.0627594 C6.4152886 65.07290339 3.20816294 65.05745296 0 65.03515625 C-1.42771729 65.04730164 -1.42771729 65.04730164 -2.88427734 65.05969238 C-9.23103861 64.97785903 -9.23103861 64.97785903 -12.52624512 62.83093262 C-14.25156069 60.00276417 -14.44427631 58.29195788 -14.45507812 54.98632812 C-14.46768677 53.87837891 -14.48029541 52.77042969 -14.49328613 51.62890625 C-14.48518921 50.43716797 -14.47709229 49.24542969 -14.46875 48.01757812 C-14.4725769 46.78974609 -14.47640381 45.56191406 -14.48034668 44.296875 C-14.48306842 41.70116353 -14.47568911 39.10542476 -14.45898438 36.50976562 C-14.43758075 32.53258213 -14.45877963 28.55720531 -14.484375 24.58007812 C-14.48173177 22.0592408 -14.47660691 19.53840459 -14.46875 17.01757812 C-14.47684692 15.82583984 -14.48494385 14.63410156 -14.49328613 13.40625 C-14.48067749 12.29830078 -14.46806885 11.19035156 -14.45507812 10.04882812 C-14.45189575 9.07494141 -14.44871338 8.10105469 -14.44543457 7.09765625 C-13.9375 4.51757812 -13.9375 4.51757812 -12.52624512 2.20422363 C-8.51210617 -0.41110894 -4.69399733 -0.03993116 0 0 Z M2.0625 16.51757812 C2.0625 27.07757813 2.0625 37.63757813 2.0625 48.51757812 C28.4625 48.51757812 54.8625 48.51757812 82.0625 48.51757812 C82.0625 37.95757812 82.0625 27.39757812 82.0625 16.51757812 C55.6625 16.51757812 29.2625 16.51757812 2.0625 16.51757812 Z " fill="#000000" transform="translate(213.9375,311.482421875)"/>
<path d="M0 0 C1.01331642 -0.00623996 2.02663284 -0.01247993 3.07065582 -0.01890898 C6.47637492 -0.03490224 9.88138459 -0.02220956 13.28710938 -0.00964355 C15.72453226 -0.01506184 18.16195186 -0.02218283 20.59936523 -0.03088379 C26.53855182 -0.04725601 32.47755321 -0.04482345 38.4167347 -0.03323323 C43.24309067 -0.02420413 48.06938996 -0.02297262 52.89575195 -0.02732849 C53.58234469 -0.02794142 54.26893743 -0.02855436 54.976336 -0.02918586 C56.37108296 -0.03046475 57.7658299 -0.0317616 59.16057682 -0.03307623 C72.24288806 -0.04448575 85.32508724 -0.03136253 98.4073801 -0.00987476 C109.63557516 0.0079966 120.86360481 0.00489259 132.09179688 -0.0135498 C145.12689692 -0.03495 158.1618987 -0.04338708 171.19701385 -0.03110075 C172.58666482 -0.02982654 173.9763158 -0.02856905 175.3659668 -0.02732849 C176.04972334 -0.02671139 176.73347989 -0.02609429 177.43795633 -0.02545848 C182.25919863 -0.02200302 187.08037867 -0.02783814 191.90161133 -0.0372467 C198.38917798 -0.04962865 204.87650539 -0.04082857 211.36404419 -0.01766968 C213.74894693 -0.01236815 216.13387591 -0.01392087 218.51876831 -0.02272034 C221.76677765 -0.033602 225.01377446 -0.02000071 228.26171875 0 C229.68758175 -0.01338433 229.68758175 -0.01338433 231.14225006 -0.02703905 C237.50949136 0.04935638 237.50949136 0.04935638 240.71447754 2.41468048 C242.24434825 4.67565844 242.67312141 5.8031641 242.63085938 8.50793457 C242.64632812 9.49793457 242.64632812 9.49793457 242.66210938 10.50793457 C241.84057663 13.60076373 240.72359006 14.5944635 238.13085938 16.50793457 C234.84768948 17.11813001 231.59289401 17.04713831 228.26171875 17.01586914 C227.24840233 17.0221091 226.23508591 17.02834907 225.19106293 17.03477812 C221.78534383 17.05077138 218.38033416 17.0380787 214.97460938 17.0255127 C212.53718649 17.03093098 210.09976689 17.03805197 207.66235352 17.04675293 C201.72316693 17.06312515 195.78416554 17.06069259 189.84498405 17.04910237 C185.01862808 17.04007327 180.19232879 17.03884176 175.3659668 17.04319763 C174.67937406 17.04381056 173.99278132 17.0444235 173.28538275 17.045055 C171.89063579 17.04633389 170.49588885 17.04763074 169.10114193 17.04894537 C156.01883069 17.06035489 142.93663151 17.04723168 129.85433865 17.0257439 C118.62614359 17.00787254 107.39811394 17.01097655 96.16992188 17.02941895 C83.13482183 17.05081914 70.09982005 17.05925622 57.0647049 17.04696989 C55.67505393 17.04569568 54.28540295 17.0444382 52.89575195 17.04319763 C52.21199541 17.04258053 51.52823886 17.04196343 50.82376242 17.04132763 C46.00252012 17.03787216 41.18134008 17.04370728 36.36010742 17.05311584 C29.87254077 17.06549779 23.38521336 17.05669771 16.89767456 17.03353882 C14.51277182 17.02823729 12.12784284 17.02979001 9.74295044 17.03858948 C6.4949411 17.04947114 3.24794429 17.03586985 0 17.01586914 C-1.425863 17.02925347 -1.425863 17.02925347 -2.88053131 17.04290819 C-9.24777261 16.96651276 -9.24777261 16.96651276 -12.45275879 14.60118866 C-13.9826295 12.3402107 -14.41140266 11.21270504 -14.36914062 8.50793457 C-14.38460937 7.51793457 -14.38460937 7.51793457 -14.40039062 6.50793457 C-12.47028052 -0.75836231 -6.1737746 -0.05795216 0 0 Z " fill="#000000" transform="translate(85.869140625,207.4920654296875)"/>
<path d="M0 0 C1.01331642 -0.00623996 2.02663284 -0.01247993 3.07065582 -0.01890898 C6.47637492 -0.03490224 9.88138459 -0.02220956 13.28710938 -0.00964355 C15.72453226 -0.01506184 18.16195186 -0.02218283 20.59936523 -0.03088379 C26.53855182 -0.04725601 32.47755321 -0.04482345 38.4167347 -0.03323323 C43.24309067 -0.02420413 48.06938996 -0.02297262 52.89575195 -0.02732849 C53.58234469 -0.02794142 54.26893743 -0.02855436 54.976336 -0.02918586 C56.37108296 -0.03046475 57.7658299 -0.0317616 59.16057682 -0.03307623 C72.24288806 -0.04448575 85.32508724 -0.03136253 98.4073801 -0.00987476 C109.63557516 0.0079966 120.86360481 0.00489259 132.09179688 -0.0135498 C145.12689692 -0.03495 158.1618987 -0.04338708 171.19701385 -0.03110075 C172.58666482 -0.02982654 173.9763158 -0.02856905 175.3659668 -0.02732849 C176.04972334 -0.02671139 176.73347989 -0.02609429 177.43795633 -0.02545848 C182.25919863 -0.02200302 187.08037867 -0.02783814 191.90161133 -0.0372467 C198.38917798 -0.04962865 204.87650539 -0.04082857 211.36404419 -0.01766968 C213.74894693 -0.01236815 216.13387591 -0.01392087 218.51876831 -0.02272034 C221.76677765 -0.033602 225.01377446 -0.02000071 228.26171875 0 C229.68758175 -0.01338433 229.68758175 -0.01338433 231.14225006 -0.02703905 C237.50949136 0.04935638 237.50949136 0.04935638 240.71447754 2.41468048 C242.24434825 4.67565844 242.67312141 5.8031641 242.63085938 8.50793457 C242.64632812 9.49793457 242.64632812 9.49793457 242.66210938 10.50793457 C241.84057663 13.60076373 240.72359006 14.5944635 238.13085938 16.50793457 C234.84768948 17.11813001 231.59289401 17.04713831 228.26171875 17.01586914 C227.24840233 17.0221091 226.23508591 17.02834907 225.19106293 17.03477812 C221.78534383 17.05077138 218.38033416 17.0380787 214.97460938 17.0255127 C212.53718649 17.03093098 210.09976689 17.03805197 207.66235352 17.04675293 C201.72316693 17.06312515 195.78416554 17.06069259 189.84498405 17.04910237 C185.01862808 17.04007327 180.19232879 17.03884176 175.3659668 17.04319763 C174.67937406 17.04381056 173.99278132 17.0444235 173.28538275 17.045055 C171.89063579 17.04633389 170.49588885 17.04763074 169.10114193 17.04894537 C156.01883069 17.06035489 142.93663151 17.04723168 129.85433865 17.0257439 C118.62614359 17.00787254 107.39811394 17.01097655 96.16992188 17.02941895 C83.13482183 17.05081914 70.09982005 17.05925622 57.0647049 17.04696989 C55.67505393 17.04569568 54.28540295 17.0444382 52.89575195 17.04319763 C52.21199541 17.04258053 51.52823886 17.04196343 50.82376242 17.04132763 C46.00252012 17.03787216 41.18134008 17.04370728 36.36010742 17.05311584 C29.87254077 17.06549779 23.38521336 17.05669771 16.89767456 17.03353882 C14.51277182 17.02823729 12.12784284 17.02979001 9.74295044 17.03858948 C6.4949411 17.04947114 3.24794429 17.03586985 0 17.01586914 C-1.425863 17.02925347 -1.425863 17.02925347 -2.88053131 17.04290819 C-9.24777261 16.96651276 -9.24777261 16.96651276 -12.45275879 14.60118866 C-13.9826295 12.3402107 -14.41140266 11.21270504 -14.36914062 8.50793457 C-14.38460937 7.51793457 -14.38460937 7.51793457 -14.40039062 6.50793457 C-12.47028052 -0.75836231 -6.1737746 -0.05795216 0 0 Z " fill="#000000" transform="translate(85.869140625,167.4920654296875)"/>
<path d="M0 0 C1.01331642 -0.00623996 2.02663284 -0.01247993 3.07065582 -0.01890898 C6.47637492 -0.03490224 9.88138459 -0.02220956 13.28710938 -0.00964355 C15.72453226 -0.01506184 18.16195186 -0.02218283 20.59936523 -0.03088379 C26.53855182 -0.04725601 32.47755321 -0.04482345 38.4167347 -0.03323323 C43.24309067 -0.02420413 48.06938996 -0.02297262 52.89575195 -0.02732849 C53.58234469 -0.02794142 54.26893743 -0.02855436 54.976336 -0.02918586 C56.37108296 -0.03046475 57.7658299 -0.0317616 59.16057682 -0.03307623 C72.24288806 -0.04448575 85.32508724 -0.03136253 98.4073801 -0.00987476 C109.63557516 0.0079966 120.86360481 0.00489259 132.09179688 -0.0135498 C145.12689692 -0.03495 158.1618987 -0.04338708 171.19701385 -0.03110075 C172.58666482 -0.02982654 173.9763158 -0.02856905 175.3659668 -0.02732849 C176.04972334 -0.02671139 176.73347989 -0.02609429 177.43795633 -0.02545848 C182.25919863 -0.02200302 187.08037867 -0.02783814 191.90161133 -0.0372467 C198.38917798 -0.04962865 204.87650539 -0.04082857 211.36404419 -0.01766968 C213.74894693 -0.01236815 216.13387591 -0.01392087 218.51876831 -0.02272034 C221.76677765 -0.033602 225.01377446 -0.02000071 228.26171875 0 C229.68758175 -0.01338433 229.68758175 -0.01338433 231.14225006 -0.02703905 C237.50949136 0.04935638 237.50949136 0.04935638 240.71447754 2.41468048 C242.24434825 4.67565844 242.67312141 5.8031641 242.63085938 8.50793457 C242.64632812 9.49793457 242.64632812 9.49793457 242.66210938 10.50793457 C241.84057663 13.60076373 240.72359006 14.5944635 238.13085938 16.50793457 C234.84768948 17.11813001 231.59289401 17.04713831 228.26171875 17.01586914 C227.24840233 17.0221091 226.23508591 17.02834907 225.19106293 17.03477812 C221.78534383 17.05077138 218.38033416 17.0380787 214.97460938 17.0255127 C212.53718649 17.03093098 210.09976689 17.03805197 207.66235352 17.04675293 C201.72316693 17.06312515 195.78416554 17.06069259 189.84498405 17.04910237 C185.01862808 17.04007327 180.19232879 17.03884176 175.3659668 17.04319763 C174.67937406 17.04381056 173.99278132 17.0444235 173.28538275 17.045055 C171.89063579 17.04633389 170.49588885 17.04763074 169.10114193 17.04894537 C156.01883069 17.06035489 142.93663151 17.04723168 129.85433865 17.0257439 C118.62614359 17.00787254 107.39811394 17.01097655 96.16992188 17.02941895 C83.13482183 17.05081914 70.09982005 17.05925622 57.0647049 17.04696989 C55.67505393 17.04569568 54.28540295 17.0444382 52.89575195 17.04319763 C52.21199541 17.04258053 51.52823886 17.04196343 50.82376242 17.04132763 C46.00252012 17.03787216 41.18134008 17.04370728 36.36010742 17.05311584 C29.87254077 17.06549779 23.38521336 17.05669771 16.89767456 17.03353882 C14.51277182 17.02823729 12.12784284 17.02979001 9.74295044 17.03858948 C6.4949411 17.04947114 3.24794429 17.03586985 0 17.01586914 C-1.425863 17.02925347 -1.425863 17.02925347 -2.88053131 17.04290819 C-9.24777261 16.96651276 -9.24777261 16.96651276 -12.45275879 14.60118866 C-13.9826295 12.3402107 -14.41140266 11.21270504 -14.36914062 8.50793457 C-14.38460937 7.51793457 -14.38460937 7.51793457 -14.40039062 6.50793457 C-12.47028052 -0.75836231 -6.1737746 -0.05795216 0 0 Z " fill="#000000" transform="translate(85.869140625,127.4920654296875)"/>
<path d="M0 0 C0.66 -0.0103125 1.32 -0.020625 2 -0.03125 C5.00095582 0.76587889 6.09589153 2.05396703 8 4.5 C8.39482906 7.21379746 8.547765 9.5225121 8.51757812 12.234375 C8.5245874 13.00881958 8.53159668 13.78326416 8.53881836 14.58117676 C8.55640499 17.13781732 8.54477389 19.69334844 8.53125 22.25 C8.53394474 24.02832247 8.53782701 25.80664351 8.54284668 27.58496094 C8.54874261 31.31068968 8.54017587 35.03603464 8.52148438 38.76171875 C8.49869459 43.53699287 8.51181719 48.31136776 8.53577423 53.08660889 C8.55022975 56.75836968 8.54562739 60.42991735 8.53526306 64.10168457 C8.53259508 65.86234646 8.53586804 67.62302771 8.54518127 69.38366699 C8.55534308 71.84484087 8.53985253 74.3045595 8.51757812 76.765625 C8.52567505 77.4930188 8.53377197 78.2204126 8.54211426 78.96984863 C8.48438774 82.41344188 8.23622667 84.19654133 6.09265137 86.95019531 C3.82216931 88.63170031 2.78966582 89.04358853 0 89 C-0.66 89.0103125 -1.32 89.020625 -2 89.03125 C-5.00095582 88.23412111 -6.09589153 86.94603297 -8 84.5 C-8.39482906 81.78620254 -8.547765 79.4774879 -8.51757812 76.765625 C-8.5245874 75.99118042 -8.53159668 75.21673584 -8.53881836 74.41882324 C-8.55640499 71.86218268 -8.54477389 69.30665156 -8.53125 66.75 C-8.53394474 64.97167753 -8.53782701 63.19335649 -8.54284668 61.41503906 C-8.54874261 57.68931032 -8.54017587 53.96396536 -8.52148438 50.23828125 C-8.49869459 45.46300713 -8.51181719 40.68863224 -8.53577423 35.91339111 C-8.55022975 32.24163032 -8.54562739 28.57008265 -8.53526306 24.89831543 C-8.53259508 23.13765354 -8.53586804 21.37697229 -8.54518127 19.61633301 C-8.55534308 17.15515913 -8.53985253 14.6954405 -8.51757812 12.234375 C-8.52567505 11.5069812 -8.53377197 10.7795874 -8.54211426 10.03015137 C-8.48438774 6.58655812 -8.23622667 4.80345867 -6.09265137 2.04980469 C-3.82216931 0.36829969 -2.78966582 -0.04358853 0 0 Z " fill="#000000" transform="translate(360,359.5)"/>
<path d="M0 0 C0.66 -0.0103125 1.32 -0.020625 2 -0.03125 C5.04782397 0.77832824 6.15682414 1.94542293 8 4.5 C8.40100915 7.33065284 8.56122899 9.68346659 8.5 12.5 C8.51546875 13.2115625 8.5309375 13.923125 8.546875 14.65625 C8.52115187 18.10314984 8.25431936 20.14752229 6.21875 22.96875 C3.88020812 24.58267327 2.80290722 25.04379543 0 25 C-0.66 25.0103125 -1.32 25.020625 -2 25.03125 C-5.04782397 24.22167176 -6.15682414 23.05457707 -8 20.5 C-8.40100915 17.66934716 -8.56122899 15.31653341 -8.5 12.5 C-8.51546875 11.7884375 -8.5309375 11.076875 -8.546875 10.34375 C-8.52115187 6.89685016 -8.25431936 4.85247771 -6.21875 2.03125 C-3.88020812 0.41732673 -2.80290722 -0.04379543 0 0 Z " fill="#000000" transform="translate(360,455.5)"/>
<path d="M0 0 C2.5 1.5 2.5 1.5 4 4 C4.791013 8.02098277 4.62153384 10.96411027 2.5 14.5 C-1.03588973 16.62153384 -3.97901723 16.791013 -8 16 C-10.5 14.5 -10.5 14.5 -12 12 C-12.791013 7.97901723 -12.62153384 5.03588973 -10.5 1.5 C-6.96411027 -0.62153384 -4.02098277 -0.791013 0 0 Z " fill="#000000" transform="translate(284,336)"/>
<path d="M0 0 C2.5 1.5 2.5 1.5 4 4 C4.791013 8.02098277 4.62153384 10.96411027 2.5 14.5 C-1.03588973 16.62153384 -3.97901723 16.791013 -8 16 C-10.5 14.5 -10.5 14.5 -12 12 C-12.791013 7.97901723 -12.62153384 5.03588973 -10.5 1.5 C-6.96411027 -0.62153384 -4.02098277 -0.791013 0 0 Z " fill="#000000" transform="translate(260,336)"/>
<path d="M0 0 C2.5 1.5 2.5 1.5 4 4 C4.791013 8.02098277 4.62153384 10.96411027 2.5 14.5 C-1.03588973 16.62153384 -3.97901723 16.791013 -8 16 C-10.5 14.5 -10.5 14.5 -12 12 C-12.791013 7.97901723 -12.62153384 5.03588973 -10.5 1.5 C-6.96411027 -0.62153384 -4.02098277 -0.791013 0 0 Z " fill="#000000" transform="translate(236,336)"/>
</svg>
