<svg width="453" height="316" viewBox="0 0 453 316" fill="none" xmlns="http://www.w3.org/2000/svg">
<path d="M383.899 4.34008C401.892 13.9712 414.396 30.0702 425 47.0002C425.785 48.1902 425.785 48.1902 426.586 49.4043C430.811 55.8667 434.374 62.4092 437.563 69.4377C438.035 70.4769 438.506 71.516 438.992 72.5867C446.792 90.1815 457.312 117.108 450.313 136.313C447.145 143.301 443.109 147.755 436 151C434.801 151.429 433.603 151.859 432.367 152.301C427.487 154.11 422.989 156.49 418.438 159C417.131 159.72 417.131 159.72 415.798 160.454C408.261 164.694 401.325 169.504 394.515 174.819C393.211 175.836 391.892 176.832 390.571 177.824C388.344 179.509 386.167 181.239 384 183C383.15 183.691 383.15 183.691 382.282 184.397C380.344 185.982 378.421 187.582 376.5 189.188C375.876 189.699 375.251 190.211 374.607 190.738C371.514 193.356 369.633 194.971 369 199C369.056 201.209 369.143 203.418 369.25 205.625C369.337 212.578 367.739 217.206 364 223C363.34 223 362.68 223 362 223C362 223.66 362 224.32 362 225C355.044 230.679 347.634 231.247 339 232C339.33 232.66 339.66 233.32 340 234C341.146 250.417 341.146 250.417 337.465 256.324C332.343 262.184 326.336 266.556 318.469 267.211C312.204 267.435 307.721 266.497 302 264C301.34 264 300.68 264 300 264C300.093 265.454 300.093 265.454 300.188 266.938C300.144 274.161 297.384 280.648 292.84 286.203C287.289 291.625 281.47 293.305 273.813 293.5C268.494 293.315 264.612 292.635 260 290C259.888 290.678 259.776 291.356 259.66 292.055C257.895 300.386 254.237 305.303 248 311C247.467 311.499 246.933 311.998 246.383 312.512C240.68 316.723 232.663 315.668 226 315C217.932 313.243 210.471 309.082 204 304C204 303.34 204 302.68 204 302C203.196 301.629 203.196 301.629 202.375 301.25C199.436 299.703 196.743 297.87 194 296C193.216 296.66 192.433 297.32 191.625 298C189 300 189 300 187 300C187 300.66 187 301.32 187 302C179.482 305.051 172.729 306.092 164.75 304.25C157.491 300.951 152.566 296.132 149 289C148.929 286.793 148.916 284.584 148.938 282.375C148.947 281.187 148.956 279.998 148.965 278.774C148.982 277.401 148.982 277.401 149 276C148.173 276.24 148.173 276.24 147.328 276.485C140.147 278.075 132.432 277.723 126 274C120.915 270.389 115.926 266.11 114 260C113.046 253.88 112.524 248.061 114 242C112.866 242.062 111.731 242.124 110.563 242.188C103.941 242.188 97.3304 239.955 92.0002 236C92.0002 235.34 92.0002 234.68 92.0002 234C91.3402 234 90.6802 234 90.0002 234C84.7851 225.246 82.2408 217.82 84.5276 207.656C84.7615 206.837 84.7615 206.837 85.0002 206C84.2152 206.035 83.4301 206.07 82.6213 206.106C76.2285 206.27 71.6447 206.079 66.0002 203C66.0002 202.34 66.0002 201.68 66.0002 201C65.4433 200.794 64.8865 200.588 64.3127 200.375C59.6175 197.583 56.4822 193.205 55.0002 188C55.0595 185.89 55.2762 183.819 55.4883 181.719C55.9823 175.913 56.1859 171.61 52.6408 166.797C49.9354 164.353 46.9608 162.318 43.9206 160.314C41.3047 158.524 38.9112 156.51 36.4799 154.48C28.7253 148.033 20.4712 142.452 12.0002 137C11.0102 136.34 10.0202 135.68 9.00021 135C9.00021 134.34 9.00021 133.68 9.00021 133C8.34021 133 7.68021 133 7.00021 133C5.74631 131.391 5.74631 131.391 4.43771 129.25C3.78609 128.206 3.78609 128.206 3.12131 127.141C-1.62815 118.072 1.16791 106.261 4.00021 97.0002C10.0575 79.0259 20.3549 61.205 33.0002 47.0002C33.6602 47.0002 34.3202 47.0002 35.0002 47.0002C35.2348 46.4498 35.4694 45.8994 35.7112 45.3323C39.9684 37.6305 47.8513 30.1341 55.0002 25.0002C55.6602 25.0002 56.3202 25.0002 57.0002 25.0002C57.0002 24.3402 57.0002 23.6802 57.0002 23.0002C59.0542 21.481 61.0895 20.103 63.2502 18.7502C63.8856 18.3491 64.5209 17.948 65.1755 17.5347C77.5506 9.83457 93.6122 0.480345 108.746 3.55883C119.444 6.97302 127.618 14.1972 135.223 22.2151C136.888 24.0766 136.888 24.0766 139 25.0002C139 25.6602 139 26.3202 139 27.0002C139.57 27.2632 140.14 27.5262 140.727 27.7971C143.154 29.0818 145.187 30.5923 147.375 32.2502C154.343 37.1823 162.071 40.2447 170.082 43.0979C180.683 46.8944 190.245 52.4304 200 58.0002C200.712 58.4061 201.424 58.812 202.157 59.2302C203.773 60.1521 205.387 61.0759 207 62.0002C207.843 61.4227 208.686 60.8452 209.555 60.2502C210.662 59.5 211.768 58.75 212.875 58.0002C214.511 56.8865 214.511 56.8865 216.18 55.7502C219 54.0002 219 54.0002 221 54.0002C221 53.3402 221 52.6802 221 52.0002C223.176 50.3607 225.344 48.8555 227.625 47.3752C228.645 46.7065 228.645 46.7065 229.686 46.0242C240.096 39.2677 250.908 33.4047 262.047 27.9534C264.623 26.692 267.171 25.3931 269.703 24.0471C270.301 23.7339 270.9 23.4208 271.516 23.0981C273.124 22.254 274.726 21.3991 276.328 20.5432C286.523 16.2591 296.23 15.624 307.188 15.5627C318.605 15.3771 329.094 14.4834 340 11.0002C341.63 10.5168 341.63 10.5168 343.293 10.0237C349.321 8.14427 355.021 5.75555 360.723 3.05101C368.979 -0.758274 375.926 0.717166 383.899 4.34008ZM356.938 11.7502C339.006 18.8445 322.39 22.2479 303.067 22.4787C292.872 22.7181 283.486 24.272 274.375 29.0627C273.21 29.6712 272.045 30.2796 270.844 30.9065C265.716 33.6798 260.622 36.514 255.544 39.3774C251.322 41.7513 247.08 43.9518 242.688 46.0002C237.791 48.4054 233.668 51.3695 229.41 54.7703C224.484 58.6936 219.366 62.2936 214.188 65.8752C199.979 75.1726 199.979 75.1726 187 86.0002C186.131 96.6047 189.677 105.359 195.309 114.196C197.351 117.582 199.079 121.074 200.813 124.625C203.923 130.969 207.266 137.136 210.78 143.265C213.058 147.256 215.147 151.286 217.125 155.438C220.812 162.883 224.938 170.08 232.903 173.41C239.432 175.247 244.966 174.244 250.988 171.27C255.694 168.3 258.224 164.228 260 159C260.388 156.448 260.388 156.448 260.375 153.813C260.404 152.953 260.432 152.093 260.461 151.207C259.182 142.309 254.185 134.307 249.875 126.563C249.338 125.584 248.8 124.605 248.246 123.596C246.255 119.983 244.289 116.434 242 113C241.088 105.202 242.55 97.4533 244 89.8127C244.286 88.2417 244.286 88.2417 244.578 86.6389C245.044 84.091 245.518 81.545 246 79.0002C247.98 79.0002 249.96 79.0002 252 79.0002C251.01 85.2702 250.02 91.5402 249 98.0002C250.609 99.3202 252.218 100.64 253.875 102C254.78 102.743 255.685 103.485 256.617 104.25C258.776 106.198 258.776 106.198 261 106C261 106.66 261 107.32 261 108C264.221 110.316 264.221 110.316 268 111C268 111.66 268 112.32 268 113C282.49 120.294 299.131 117.877 314 113C326.991 108.449 341.066 101.411 352 93.0002C352 92.3402 352 91.6802 352 91.0002C355.371 89.502 357.205 89.0002 361 89.0002C361.33 90.3202 361.66 91.6402 362 93.0002C358.676 95.3462 355.34 97.6753 352 100C351.259 100.525 350.518 101.05 349.754 101.59C343.801 105.708 337.531 108.899 331 112C330.091 112.445 329.183 112.89 328.246 113.348C314.409 119.934 300.196 122.883 285 124C285 124.66 285 125.32 285 126C287.114 127.679 287.114 127.679 289.75 129.375C293.221 131.679 296.094 134.024 299 137C300.352 138.112 301.727 139.197 303.125 140.25C303.808 140.771 304.492 141.292 305.196 141.828C306.921 143.182 306.921 143.182 309 143C309.33 143.99 309.66 144.98 310 146C311.787 147.669 311.787 147.669 313.938 149.188C314.648 149.718 315.358 150.247 316.09 150.793C317.905 152.178 317.905 152.178 320 152C320 152.66 320 153.32 320 154C321.487 155.361 321.487 155.361 323.375 156.625C324.002 157.071 324.628 157.517 325.274 157.977C326.952 159.17 326.952 159.17 329 159C329 159.66 329 160.32 329 161C330.944 162.817 330.944 162.817 333.375 164.625C334.187 165.257 334.999 165.889 335.836 166.539C337.841 168.187 337.841 168.187 340 168C340 168.66 340 169.32 340 170C341.76 171.462 343.586 172.845 345.438 174.188C346.541 174.997 347.644 175.807 348.746 176.617C349.297 177.019 349.847 177.421 350.414 177.835C352.633 179.465 354.82 181.132 357 182.813C357.681 183.335 358.361 183.857 359.063 184.395C361.177 186.147 363.088 188.032 365 190C366.506 188.883 368.005 187.756 369.5 186.625C370.753 185.686 370.753 185.686 372.031 184.727C372.681 184.157 373.331 183.587 374 183C374 182.34 374 181.68 374 181C374.56 180.75 375.119 180.5 375.696 180.242C378.372 178.8 380.531 177.06 382.875 175.125C385.719 172.803 388.517 170.579 391.625 168.625C392.801 167.821 392.801 167.821 394 167C394 166.34 394 165.68 394 165C395.114 164.567 395.114 164.567 396.25 164.125C398.568 163.177 400.779 162.152 403 161C403 160.34 403 159.68 403 159C403.857 158.746 404.715 158.492 405.598 158.231C409.19 156.932 412.164 155.275 415.438 153.313C421.137 149.943 426.941 147.045 433.025 144.435C438.138 142.173 440.926 139.612 444 135C446.655 125.975 444.546 116.04 443 107C442.743 105.473 442.743 105.473 442.481 103.914C437.632 79.5765 424.086 54.5397 409 35.0002C408.34 35.0002 407.68 35.0002 407 35.0002C406.01 32.5252 406.01 32.5252 405 30.0002C404.34 30.0002 403.68 30.0002 403 30.0002C403 29.3402 403 28.6802 403 28.0002C401.452 26.3954 401.452 26.3954 399.438 24.7502C398.334 23.8163 398.334 23.8163 397.207 22.8635C396.479 22.2486 395.751 21.6337 395 21.0002C394.14 20.2171 394.14 20.2171 393.262 19.4182C386.781 13.5564 379.709 8.54325 370.879 7.70336C365.76 8.09517 361.654 9.8087 356.938 11.7502ZM60.0002 30.0002C59.2087 30.552 58.4172 31.1037 57.6018 31.6721C57.0733 32.1104 56.5447 32.5487 56.0002 33.0002C56.0002 33.6602 56.0002 34.3202 56.0002 35.0002C55.4176 35.258 54.8349 35.5159 54.2346 35.7815C51.8199 37.0986 50.1828 38.5511 48.2502 40.5002C47.6366 41.1087 47.023 41.7171 46.3908 42.344C44.7859 43.8951 44.7859 43.8951 45.0002 46.0002C44.3402 46.0002 43.6802 46.0002 43.0002 46.0002C41.0618 48.2336 39.2383 50.4726 37.4377 52.8127C36.9305 53.4553 36.4232 54.0979 35.9006 54.76C33.7297 57.5495 32.1303 59.61 31.0002 63.0002C30.3402 63.0002 29.6802 63.0002 29.0002 63.0002C28.3402 64.114 27.6802 65.2277 27.0002 66.3752C26.629 67.0017 26.2577 67.6282 25.8752 68.2737C24.8495 69.975 24.8495 69.975 25.0002 72.0002C24.3402 72.0002 23.6802 72.0002 23.0002 72.0002C14.3551 87.3595 5.73851 103.775 8.00021 122C8.92995 124.286 8.92995 124.286 10.0002 126C10.6602 126 11.3202 126 12.0002 126C12.6602 127.32 13.3202 128.64 14.0002 130C14.6602 130 15.3202 130 16.0002 130C16.0002 130.66 16.0002 131.32 16.0002 132C18.2229 133.566 20.4371 135.017 22.7502 136.438C24.0167 137.227 25.2823 138.017 26.5471 138.809C27.1471 139.182 27.7472 139.556 28.3654 139.941C29.7301 140.825 31.038 141.796 32.3283 142.785C33.9254 144.196 33.9254 144.196 36.0002 144C36.0002 144.66 36.0002 145.32 36.0002 146C38.11 147.81 40.2275 149.509 42.4377 151.188C43.0721 151.677 43.7065 152.167 44.3601 152.671C45.6381 153.657 46.918 154.641 48.1999 155.621C50.6032 157.462 52.9892 159.325 55.3752 161.188C56.5833 162.126 57.7915 163.063 59.0002 164C61.5369 162.645 61.5369 162.645 64.0002 161C64.0002 160.34 64.0002 159.68 64.0002 159C64.582 158.733 65.1638 158.466 65.7632 158.191C68.0491 156.974 69.8213 155.626 71.7932 153.953C72.5067 153.355 73.2202 152.757 73.9553 152.141C75.4245 150.897 76.8933 149.652 78.3615 148.406C89.5245 139.052 97.201 134.933 112 136C118.666 137.623 123.195 142.478 127 148C128.853 151.782 129.349 155.128 129.625 159.313C129.737 160.916 129.737 160.916 129.852 162.551C129.925 163.763 129.925 163.763 130 165C130.743 164.835 131.485 164.67 132.25 164.5C141.512 163.265 148.739 163.436 157 168C158.332 168.671 159.665 169.338 161 170C161 170.66 161 171.32 161 172C161.66 172 162.32 172 163 172C163.667 174 164.334 176 165 178C165.371 178.908 165.743 179.815 166.125 180.75C168.427 189.3 166.912 197.176 163 205C165.124 205.67 167.249 206.336 169.375 207C171.15 207.557 171.15 207.557 172.961 208.125C175.793 209.092 175.793 209.092 178 209C178 209.66 178 210.32 178 211C178.908 211.681 179.815 212.361 180.75 213.063C185.68 217.093 187.665 221.919 188.348 228.192C188.525 234.835 187.829 239.988 185 246C185.892 246.338 186.784 246.676 187.703 247.024C189.459 247.693 189.459 247.693 191.25 248.375C192.99 249.037 192.99 249.037 194.766 249.711C197.262 250.706 199.629 251.744 202 253C202 253.66 202 254.32 202 255C202.66 255 203.32 255 204 255C204.684 256.66 205.346 258.329 206 260C206.557 261.3 206.557 261.3 207.125 262.625C209.277 270.926 208.45 277.391 204.387 284.906C203 287 203 287 201.332 288.656C199.766 289.922 199.766 289.922 200 292C202.254 293.867 204.505 295.604 206.875 297.313C207.562 297.808 208.249 298.304 208.956 298.814C217.598 304.95 225.079 309.344 236 309C239.741 308.132 241.808 307.128 245 305C245 304.34 245 303.68 245 303C245.66 303 246.32 303 247 303C247 302.34 247 301.68 247 301C247.66 301 248.32 301 249 301C251.73 296.45 253.224 292.243 252 287C249.419 282.531 246.378 279.201 242.563 275.75C241.636 274.899 240.709 274.049 239.754 273.172C237.183 271.144 235.09 270.01 232 269C232 268.34 232 267.68 232 267C230.514 265.64 230.514 265.64 228.625 264.375C227.999 263.929 227.372 263.483 226.727 263.024C225.048 261.83 225.048 261.83 223 262C223 261.34 223 260.68 223 260C221.218 258.559 219.374 257.195 217.5 255.875C216.479 255.151 215.458 254.426 214.406 253.68C213.215 252.848 213.215 252.848 212 252C212.66 250.35 213.32 248.7 214 247C216.97 247.99 216.97 247.99 220 249C220 249.66 220 250.32 220 251C221.865 252.541 223.726 253.968 225.688 255.375C231.835 259.864 231.835 259.864 234.77 262.289C236.796 264.203 236.796 264.203 239 264C239 264.66 239 265.32 239 266C240.487 267.361 240.487 267.361 242.375 268.625C243.002 269.071 243.628 269.517 244.274 269.977C245.952 271.17 245.952 271.17 248 271C248 271.66 248 272.32 248 273C251.489 275.905 255.268 278.42 259 281C260.104 281.793 260.104 281.793 261.231 282.602C267.014 286.549 272.147 287.717 279.063 286.438C284.788 284.759 288.565 281.037 291.938 276.25C293.903 270.238 294.009 264.487 291.313 258.688C287.981 252.367 281.792 248.062 276.313 243.688C275.637 243.138 274.96 242.588 274.264 242.022C273.616 241.503 272.968 240.984 272.301 240.449C271.715 239.979 271.129 239.508 270.525 239.022C269.029 237.815 269.029 237.815 267 238C267 237.34 267 236.68 267 236C264.922 234.319 264.922 234.319 262.313 232.625C259.439 230.678 256.697 228.754 254 226.563C252.161 224.795 252.161 224.795 250 225C250 224.34 250 223.68 250 223C248.35 222.34 246.7 221.68 245 221C245.66 219.35 246.32 217.7 247 216C251.09 216 253.073 218.112 256.125 220.563C256.701 221.014 257.276 221.466 257.869 221.931C259.585 223.28 261.294 224.638 263 226C264.727 227.378 266.456 228.754 268.188 230.125C268.883 230.685 269.577 231.244 270.293 231.821C271.929 233.19 271.929 233.19 274 233C274 233.66 274 234.32 274 235C275.487 236.361 275.487 236.361 277.375 237.625C278.002 238.071 278.628 238.517 279.274 238.977C280.952 240.17 280.952 240.17 283 240C283 240.66 283 241.32 283 242C284.594 243.296 286.253 244.512 287.938 245.688C291.637 248.299 295.235 250.959 298.75 253.813C305.55 259.084 311.462 260.964 320 260C325.825 258.447 328.431 255.76 331.836 251.035C334.243 246.827 334.325 242.792 334 238C330.419 226.414 320.344 219.886 311 213C302.591 206.766 294.231 200.486 286.063 193.938C285.024 193.115 285.024 193.115 283.964 192.276C283.327 191.761 282.691 191.246 282.035 190.715C281.472 190.263 280.909 189.81 280.329 189.344C279 188 279 188 278 185C278.66 185 279.32 185 280 185C280 184.34 280 183.68 280 183C285.428 185.782 290.132 188.679 294.59 192.864C295.958 194.209 295.958 194.209 298 194C298 194.66 298 195.32 298 196C299.594 197.296 301.253 198.512 302.938 199.688C307.491 202.905 311.891 206.241 316.223 209.75C317.911 211.192 317.911 211.192 320 211C320 211.66 320 212.32 320 213C321.487 214.361 321.487 214.361 323.375 215.625C324.002 216.071 324.628 216.517 325.274 216.977C326.952 218.17 326.952 218.17 329 218C329 218.66 329 219.32 329 220C335.844 224.294 341.981 225.265 350 224C355.407 221.924 358.962 218.834 361.625 213.688C363.903 207.461 363.037 201.952 360.5 195.938C357.692 190.878 353.462 187.573 349 184C348.423 183.531 347.845 183.061 347.25 182.577C345.361 181.043 343.464 179.519 341.563 178C340.947 177.507 340.332 177.013 339.698 176.505C336.707 173.873 336.707 173.873 333 173C333 172.34 333 171.68 333 171C330.971 169.295 328.94 167.699 326.813 166.125C325.652 165.253 324.492 164.381 323.332 163.508C322.768 163.088 322.205 162.668 321.624 162.236C320.118 161.09 318.656 159.887 317.199 158.68C315.197 156.798 315.197 156.798 313 157C313 156.34 313 155.68 313 155C310.886 153.322 310.886 153.322 308.25 151.625C304.771 149.316 301.937 146.954 299 144C296.731 142.112 294.398 140.307 292.063 138.5C290.845 137.552 289.628 136.605 288.41 135.656C287.83 135.208 287.251 134.759 286.653 134.297C285.141 133.111 283.661 131.886 282.184 130.656C280.191 128.799 280.191 128.799 278 129C278 128.34 278 127.68 278 127C276.514 125.64 276.514 125.64 274.625 124.375C273.999 123.929 273.372 123.483 272.727 123.024C271.048 121.83 271.048 121.83 269 122C269 121.34 269 120.68 269 120C267.117 118.572 265.166 117.231 263.188 115.938C262.109 115.225 261.03 114.512 259.918 113.778C257.09 111.906 257.09 111.906 254 111C254 110.34 254 109.68 254 109C252.02 108.01 250.04 107.02 248 106C248.391 112.577 250.971 117.123 254.25 122.75C255.256 124.526 256.258 126.303 257.258 128.082C257.735 128.93 258.213 129.778 258.704 130.651C263.95 140.161 267.712 149.324 265.539 160.336C263.488 167.407 259.719 172.577 253.375 176.375C246.296 179.784 238.229 180.133 230.547 178.469C218.145 174.114 213.348 161.968 207.981 150.976C205.973 146.879 203.846 142.919 201.5 139C197.612 132.481 194.285 125.722 190.948 118.91C190.063 117.128 189.148 115.36 188.231 113.594C187.701 112.573 187.171 111.552 186.625 110.5C186.164 109.624 185.702 108.747 185.227 107.844C182.35 101.173 181.714 95.1587 181.875 88.0002C181.884 87.2255 181.893 86.4508 181.903 85.6526C181.926 83.7683 181.962 81.8842 182 80.0002C182.695 79.7618 183.39 79.5233 184.106 79.2776C187.548 77.7583 190.294 75.8072 193.313 73.5627C193.862 73.1676 194.412 72.7725 194.979 72.3655C196.746 71.082 196.746 71.082 199 69.0002C199 68.0102 199 67.0202 199 66.0002C193.508 61.4844 187.277 58.2915 181 55.0002C180.207 54.5658 179.415 54.1314 178.598 53.6838C173.168 50.802 167.707 48.9104 161.838 47.0969C155.634 45.0763 150.274 41.9662 144.731 38.5745C142.237 36.8337 142.237 36.8337 140 37.0002C140 36.3402 140 35.6802 140 35.0002C138.403 33.5885 136.745 32.2462 135.063 30.9377C131.259 27.912 127.777 24.8431 124.438 21.3127C118.659 15.4308 111.994 10.2143 103.461 9.84008C86.5578 10.9401 73.0789 20.1309 60.0002 30.0002ZM93.0002 144C93.0002 144.66 93.0002 145.32 93.0002 146C92.299 146.227 91.5977 146.454 90.8752 146.688C87.2589 148.339 84.9125 150.291 82.0002 153C82.0002 153.66 82.0002 154.32 82.0002 155C81.299 155.227 80.5977 155.454 79.8752 155.688C76.2589 157.339 73.9125 159.291 71.0002 162C71.0002 162.66 71.0002 163.32 71.0002 164C70.4227 164.227 69.8452 164.454 69.2502 164.688C65.2694 167.01 63.4216 169.977 61.6877 174.188C60.5917 180.265 60.707 186.604 64.0002 192C68.9398 197.322 73.6161 199.673 80.8752 200.375C86.7363 200.24 91.2536 197.165 96.0002 194C96.0002 193.34 96.0002 192.68 96.0002 192C96.5622 191.746 97.1243 191.492 97.7033 191.231C106.794 186.361 119.066 176.75 123.25 167.125C124.819 160.588 124.185 155.931 121 150C115.965 144.32 112.232 141.513 104.684 140.918C100.468 141.047 96.8493 142.355 93.0002 144ZM130 173C130 173.66 130 174.32 130 175C129.485 175.227 128.969 175.454 128.438 175.688C125.105 177.482 121.853 179.5 119 182C119 182.66 119 183.32 119 184C118.445 184.248 117.889 184.495 117.317 184.75C112.384 187.412 108.253 191.383 104 195C103.488 195.435 102.977 195.87 102.449 196.319C100.935 197.617 99.436 198.933 97.9377 200.25C97.0392 201.039 96.1408 201.828 95.2151 202.641C90.5841 207.574 90.5841 212.543 90.6643 219.039C91.1411 223.242 92.5342 225.61 95.0002 229C95.6602 229 96.3202 229 97.0002 229C97.0002 229.66 97.0002 230.32 97.0002 231C103.078 234.602 107.917 236.162 115 235C117.914 233.906 120.306 232.597 123 231C123 230.34 123 229.68 123 229C123.774 228.66 123.774 228.66 124.563 228.313C127.896 226.518 131.147 224.501 134 222C134 221.34 134 220.68 134 220C134.579 219.733 135.158 219.466 135.754 219.191C139.713 217.092 142.996 214.096 146.438 211.25C147.189 210.642 147.939 210.033 148.713 209.406C157.53 202.188 157.53 202.188 162 192C162.093 185.651 160.647 181.167 157 176C151.58 170.858 146.827 169.61 139.516 169.731C135.872 170.121 133.236 171.312 130 173ZM152 214C152 214.66 152 215.32 152 216C151.485 216.227 150.969 216.454 150.438 216.688C147.105 218.482 143.853 220.5 141 223C141 223.66 141 224.32 141 225C140.438 225.258 139.876 225.516 139.297 225.781C136.733 227.142 134.548 228.728 132.25 230.5C131.451 231.109 130.652 231.717 129.828 232.344C129.225 232.891 128.622 233.437 128 234C128 234.66 128 235.32 128 236C127.385 236.253 126.77 236.506 126.137 236.766C121.838 239.249 120.51 244.402 119.063 248.938C118.949 254.511 120.939 259.408 124 264C124.66 264 125.32 264 126 264C126 264.66 126 265.32 126 266C132.104 270.439 137.551 271.024 145 270C147.988 268.939 150.279 267.675 153 266C153 265.34 153 264.68 153 264C153.722 263.773 154.444 263.546 155.188 263.313C158.546 261.746 160.462 259.672 163 257C163.99 256.34 164.98 255.68 166 255C166 254.34 166 253.68 166 253C167.65 252.34 169.3 251.68 171 251C171 250.34 171 249.68 171 249C171.594 248.742 172.189 248.485 172.801 248.219C175.178 246.902 176.468 245.587 178.188 243.5C178.951 242.588 178.951 242.588 179.731 241.656C183.397 236.873 182.578 230.74 182 225C180.141 219.527 176.376 215.659 171.383 212.84C164.958 210.576 158.119 211.215 152 214ZM165 263C165 263.66 165 264.32 165 265C164.443 265.206 163.886 265.413 163.313 265.625C159.636 267.812 156.85 270.973 155.188 274.938C154.565 281.79 154.944 287.07 159.324 292.703C162.513 296.151 165.269 298.165 170 299C176.386 299.082 180.71 297.49 186 294C186 293.34 186 292.68 186 292C186.566 291.746 187.132 291.492 187.715 291.231C192.96 288.406 198.454 283.956 201.063 278.5C202.958 271.426 202.433 266.958 199.168 260.567C197.994 258.681 197.994 258.681 195 258C195 257.34 195 256.68 195 256C184.296 249.31 173.072 255.081 165 263Z" fill="#8F8F8F"/>
</svg>
