<svg width="10" height="11" viewBox="0 0 10 11" fill="none" xmlns="http://www.w3.org/2000/svg">
<path fill-rule="evenodd" clip-rule="evenodd" d="M3.49989 0C3.36729 0 3.24012 0.0503894 3.14635 0.140077L0.146441 3.00964C0.0526785 3.09933 0 3.22097 0 3.34782V9.08693C0 9.87936 0.671555 10.5217 1.49995 10.5217H1.99994C2.27607 10.5217 2.49992 10.3076 2.49992 10.0435C2.49992 9.77931 2.27607 9.56519 1.99994 9.56519H1.49995C1.22382 9.56519 0.99997 9.35108 0.99997 9.08693V3.82608H3.49989C3.77604 3.82608 3.99988 3.61195 3.99988 3.34782V0.956519H7.49977C7.77592 0.956519 7.99976 1.17065 7.99976 1.43478V4.7826C7.99976 5.04674 8.2236 5.26086 8.49974 5.26086C8.77589 5.26086 8.99973 5.04674 8.99973 4.7826V1.43478C8.99973 0.642375 8.3282 0 7.49977 0H3.49989ZM2.99991 2.86956H1.70705L2.99991 1.63288V2.86956ZM3.65379 10.7909C3.73274 10.884 3.84748 10.9604 3.99218 10.9886C4.12768 11.0151 4.24602 10.9909 4.32802 10.9623C4.47892 10.9096 4.59766 10.8103 4.67511 10.7372C4.79691 10.6224 4.9244 10.4666 5.0513 10.2907C5.60593 10.1076 6.38536 9.93919 7.14329 9.83312C7.56462 9.7741 7.95801 9.73751 8.2892 9.72508C8.4204 9.87281 8.53974 10.0001 8.63914 10.0963C8.70134 10.1565 8.77049 10.219 8.83813 10.2668C8.86863 10.2884 8.92568 10.3266 8.99923 10.354C9.03748 10.3682 9.28877 10.46 9.52091 10.2811C9.65751 10.1758 9.78396 10.058 9.8719 9.92509C9.9603 9.79155 10.0436 9.58772 9.97425 9.35596C9.90625 9.12907 9.72911 9.00185 9.59871 8.93619C9.46567 8.86923 9.31617 8.83193 9.17902 8.80892C9.05473 8.78807 8.91413 8.77501 8.76139 8.76861C8.45185 8.39896 8.09001 7.93921 7.74627 7.47032C7.44478 7.05911 7.16369 6.64972 6.94529 6.29328C6.96774 6.20131 6.98649 6.11292 7.00104 6.02894C7.02594 5.88508 7.04099 5.74103 7.03769 5.60573C7.03454 5.47593 7.01399 5.31963 6.93979 5.17367C6.85749 5.01192 6.7078 4.86467 6.48391 4.80699C6.28301 4.75524 6.09147 4.79403 5.94452 4.84601C5.71778 4.92627 5.59348 5.10427 5.55053 5.27812C5.51423 5.42523 5.53388 5.56728 5.55663 5.66876C5.60363 5.87853 5.71328 6.11962 5.83957 6.35574C5.85082 6.37673 5.86237 6.39802 5.87417 6.41944C5.75498 6.79473 5.57873 7.23741 5.36944 7.69515C5.06265 8.36615 4.70261 9.03127 4.39252 9.50685C4.18082 9.59169 3.98548 9.68878 3.83718 9.80031C3.73619 9.8763 3.60084 9.99993 3.53609 10.1806C3.4565 10.4028 3.51294 10.6247 3.65379 10.7909ZM6.99849 8.88664C6.59155 8.9436 6.17206 9.01835 5.77473 9.10568C5.95187 8.77717 6.12627 8.42698 6.28561 8.07848C6.37611 7.88052 6.46326 7.67994 6.54405 7.48146C6.6678 7.66053 6.7969 7.84136 6.92754 8.01951C7.12884 8.29403 7.33648 8.56611 7.53772 8.82088C7.35908 8.83929 7.17813 8.86153 6.99849 8.88664ZM6.53025 5.4446C6.5302 5.44398 6.53015 5.4437 6.5301 5.4437C6.5301 5.44365 6.53015 5.44441 6.5303 5.44604C6.5303 5.44547 6.53025 5.44499 6.53025 5.4446Z" fill="white"/>
</svg>
