<?xml version="1.0" encoding="UTF-8"?>
<svg version="1.1" xmlns="http://www.w3.org/2000/svg" width="512" height="512">
<path d="M0 0 C0.82781322 -0.00235223 1.65562643 -0.00470446 2.50852489 -0.00712797 C5.31255677 -0.01384239 8.11654256 -0.01335902 10.92058182 -0.01294994 C12.93918467 -0.01624705 14.95778687 -0.01997229 16.97638822 -0.02409142 C22.54705799 -0.03413696 28.11771699 -0.03783231 33.68839455 -0.04048073 C39.68717154 -0.04437622 45.68593993 -0.05395503 51.68471146 -0.0626936 C65.49762841 -0.08154361 79.31054602 -0.09171708 93.12347218 -0.10015428 C99.94656956 -0.10435846 106.76966606 -0.10958075 113.59276269 -0.11483881 C136.9404205 -0.13273013 160.28807855 -0.14772709 183.63574219 -0.155159 C185.10195421 -0.15563376 186.56816623 -0.15610965 188.03437825 -0.15658666 C189.12506259 -0.15694122 189.12506259 -0.15694122 190.23778096 -0.15730295 C193.92186318 -0.15850417 197.6059454 -0.15971961 201.29002762 -0.16094494 C202.38671151 -0.16130516 202.38671151 -0.16130516 203.50555063 -0.16167267 C227.21615642 -0.16956753 250.92671221 -0.19300262 274.63729617 -0.22550088 C299.69447068 -0.25978223 324.75161593 -0.27950856 349.80881429 -0.28280324 C352.55840382 -0.28322079 355.30799334 -0.28370036 358.05758286 -0.28422642 C359.07315215 -0.28441121 359.07315215 -0.28441121 360.109238 -0.28459973 C371.01491196 -0.28693385 381.92052795 -0.30260564 392.82618124 -0.32306826 C403.78392485 -0.34330276 414.74160816 -0.34848084 425.69936845 -0.33929763 C431.6382785 -0.33473807 437.57699995 -0.3367351 443.5158844 -0.35605907 C448.94906842 -0.37358544 454.38192479 -0.37277905 459.81511179 -0.35716178 C461.78419409 -0.35476963 463.75329846 -0.3591917 465.72234687 -0.37099043 C468.39294703 -0.386006 471.06237064 -0.37650894 473.73294067 -0.36076355 C474.50273616 -0.37098576 475.27253165 -0.38120796 476.06565428 -0.39173993 C481.23122862 -0.3249781 484.13224617 0.88957887 488.11815262 4.13422108 C492.78549776 9.43228854 493.26684981 12.66510458 493.26532364 19.57251453 C493.26900033 20.45612085 493.27267702 21.33972717 493.27646512 22.25010943 C493.28753104 25.22873837 493.29135071 28.20733245 493.29515457 31.18597889 C493.30141702 33.31444377 493.30806362 35.44290755 493.31506729 37.57137012 C493.33249716 43.36692046 493.34303441 49.16246254 493.35127282 54.95803261 C493.35641864 58.57663651 493.36249455 62.19523783 493.36878395 65.81383991 C493.38784134 77.1290145 493.40207146 88.44418253 493.41039592 99.75937009 C493.42017213 112.83308367 493.44649949 125.90662811 493.48689681 138.98028207 C493.51702829 149.07714937 493.53186197 159.17396811 493.53517693 169.27087951 C493.53753076 175.3051479 493.54653454 181.33923572 493.57163811 187.373456 C493.59487188 193.05007514 493.59917087 198.7263942 493.58887672 204.40304852 C493.58838012 206.48718926 493.59473723 208.57134453 493.60843277 210.65544033 C493.62608039 213.49998628 493.61908053 216.34344702 493.60589981 219.18799305 C493.62235368 220.42623479 493.62235368 220.42623479 493.63913995 221.68949151 C493.58002617 226.97066667 492.58853525 229.92893857 489.11815262 234.13422108 C483.98173793 238.65915783 480.9301613 239.28118814 474.23630524 239.26844215 C472.99458541 239.2719705 472.99458541 239.2719705 471.72778034 239.27557012 C468.92374847 239.28228454 466.11976268 239.28180117 463.31572342 239.2813921 C461.29712056 239.2846892 459.27851837 239.28841444 457.25991702 239.29253358 C451.68924724 239.30257911 446.11858824 239.30627446 440.54791069 239.30892289 C434.5491337 239.31281837 428.5503653 239.32239719 422.55159378 239.33113575 C408.73867682 239.34998576 394.92575921 239.36015924 381.11283306 239.36859643 C374.28973568 239.37280062 367.46663918 239.37802291 360.64354254 239.38328096 C337.29588474 239.40117228 313.94822669 239.41616925 290.60056305 239.42360115 C289.13435103 239.42407591 287.66813901 239.4245518 286.20192699 239.42502881 C285.11124265 239.42538338 285.11124265 239.42538338 283.99852428 239.4257451 C280.31444205 239.42694633 276.63035984 239.42816177 272.94627762 239.42938709 C272.21515503 239.42962724 271.48403243 239.42986739 270.73075461 239.43011482 C247.02014882 239.43800968 223.30959302 239.46144478 199.59900907 239.49394304 C174.54183456 239.52822438 149.48468931 239.54795071 124.42749095 239.55124539 C121.67790141 239.55166294 118.9283119 239.55214251 116.17872238 239.55266857 C115.16315309 239.55285336 115.16315309 239.55285336 114.12706724 239.55304188 C103.22139328 239.55537601 92.31577729 239.57104779 81.410124 239.59151042 C70.45238038 239.61174492 59.49469707 239.61692299 48.53693679 239.60773978 C42.59802674 239.60318022 36.65930529 239.60517726 30.72042084 239.62450123 C25.28723681 239.64202759 19.85438044 239.6412212 14.42119345 239.62560394 C12.45211115 239.62321179 10.48300677 239.62763386 8.51395836 239.63943259 C5.84335821 239.65444815 3.1739346 239.64495109 0.50336456 239.6292057 C-0.26643093 239.63942791 -1.03622642 239.64965012 -1.82934904 239.66018209 C-6.99492339 239.59342026 -9.89594093 238.37886328 -13.88184738 235.13422108 C-18.54919253 229.83615361 -19.03054458 226.60333758 -19.0290184 219.69592762 C-19.03269509 218.8123213 -19.03637178 217.92871499 -19.04015988 217.01833272 C-19.05122581 214.03970379 -19.05504548 211.06110971 -19.05884933 208.08246326 C-19.06511178 205.95399838 -19.07175838 203.8255346 -19.07876205 201.69707203 C-19.09619192 195.90152169 -19.10672918 190.10597961 -19.11496758 184.31040955 C-19.1201134 180.69180564 -19.12618931 177.07320432 -19.13247871 173.45460224 C-19.15153611 162.13942766 -19.16576622 150.82425962 -19.17409068 139.50907207 C-19.18386689 126.43535849 -19.21019425 113.36181405 -19.25059158 100.28816009 C-19.28072306 90.19129279 -19.29555673 80.09447405 -19.2988717 69.99756265 C-19.30122553 63.96329425 -19.31022931 57.92920643 -19.33533287 51.89498615 C-19.35856664 46.21836701 -19.36286564 40.54204795 -19.35257149 34.86539364 C-19.35207488 32.7812529 -19.35843199 30.69709762 -19.37212753 28.61300182 C-19.38977515 25.76845587 -19.3827753 22.92499514 -19.36959457 20.0804491 C-19.38056382 19.25495461 -19.39153307 18.42946012 -19.40283471 17.57895064 C-19.34372094 12.29777548 -18.35223002 9.33950358 -14.88184738 5.13422108 C-9.74543269 0.60928433 -6.69385607 -0.01274598 0 0 Z M-0.88184738 18.13422108 C-0.88184738 85.12422108 -0.88184738 152.11422108 -0.88184738 221.13422108 C156.19815262 221.13422108 313.27815262 221.13422108 475.11815262 221.13422108 C475.11815262 154.14422108 475.11815262 87.15422108 475.11815262 18.13422108 C318.03815262 18.13422108 160.95815262 18.13422108 -0.88184738 18.13422108 Z " fill="#000000" transform="translate(18.881847381591797,67.86577892303467)"/>
<path d="M0 0 C1.44941408 -0.0054259 2.89882264 -0.01255119 4.34822083 -0.02124023 C8.26971023 -0.03941952 12.190777 -0.03242908 16.11227345 -0.01972389 C20.22276367 -0.00957004 24.33321863 -0.018996 28.44371033 -0.02526855 C35.34437533 -0.03253722 42.24486886 -0.02297699 49.14550781 -0.00390625 C57.11694064 0.01786972 65.08796432 0.01080289 73.05938727 -0.01121187 C79.91225494 -0.02937791 86.76499964 -0.0319186 93.61788362 -0.0214572 C97.70705046 -0.01522996 101.79602512 -0.0143655 105.88517952 -0.02760315 C109.72917859 -0.039179 113.57265121 -0.03110488 117.41659355 -0.00802612 C118.825058 -0.00274857 120.23356695 -0.00423653 121.64201355 -0.01307678 C134.79569248 -0.08801032 134.79569248 -0.08801032 139.71459961 4.51757812 C146.75948203 11.75815172 146.00792426 20.43218636 145.98925781 29.92919922 C145.99361038 31.28507263 145.99879534 32.64094358 146.00474548 33.99681091 C146.01808886 37.66426703 146.01871933 41.33161979 146.01618218 44.99909544 C146.01510921 48.0679871 146.02000423 51.13685812 146.0247876 54.20574534 C146.03586687 61.45000491 146.03632924 68.69421263 146.03027344 75.93847656 C146.02423561 83.39514195 146.03654336 90.85161855 146.05784351 98.30825174 C146.07549598 104.72547775 146.08145509 111.14264387 146.07820576 117.55989325 C146.07639842 121.38589149 146.0789739 125.21175507 146.0929203 129.03773117 C146.10555345 132.6378738 146.10350321 136.23772356 146.09050941 139.83786201 C146.08704011 141.77672728 146.09828134 143.71560172 146.1100769 145.6544342 C146.06526028 153.1415777 145.84191494 160.5942189 140.99584961 166.67382812 C140.40803711 167.11726562 139.82022461 167.56070313 139.21459961 168.01757812 C138.62678711 168.48164063 138.03897461 168.94570313 137.43334961 169.42382812 C133.93186205 171.65204748 130.85644336 171.64866161 126.82025146 171.66474915 C125.58936295 171.67190445 124.35847443 171.67905975 123.09028625 171.68643188 C121.72384669 171.68927211 120.35740685 171.69198384 118.9909668 171.69458008 C117.5536228 171.70084578 116.11628043 171.70749267 114.67893982 171.7144928 C109.95646287 171.73552346 105.23398563 171.74589444 100.51147461 171.75585938 C98.88491041 171.75990734 97.25834638 171.76402428 95.63178253 171.76820946 C87.98955591 171.78725917 80.34733894 171.8014905 72.70509315 171.80982143 C63.88758092 171.81959257 55.07031982 171.84590967 46.25289607 171.88632232 C39.43494605 171.91649695 32.61706797 171.93129159 25.79905248 171.93460244 C21.72819326 171.93695146 17.65760238 171.94589236 13.58681488 171.97106361 C9.7552411 171.99437304 5.92411179 171.99856629 2.09248543 171.98830223 C0.68925814 171.98780745 -0.71399123 171.99411108 -2.11715126 172.00785828 C-15.82408325 172.13459304 -15.82408325 172.13459304 -21.28540039 167.51757812 C-27.47419307 161.14961135 -26.99916135 153.63967443 -26.93237305 145.2421875 C-26.93915773 143.80571894 -26.94806563 142.3692591 -26.95892334 140.93281555 C-26.98162281 137.05042555 -26.97291966 133.16870351 -26.95702791 129.28630257 C-26.94432004 125.21278278 -26.95612254 121.13931807 -26.96395874 117.0657959 C-26.97304115 110.22654003 -26.96110458 103.3875546 -26.93725586 96.54833984 C-26.91004708 88.65466623 -26.91886226 80.76163845 -26.94638789 72.86798048 C-26.96911832 66.07618691 -26.9722599 59.28458715 -26.95919454 52.49276781 C-26.95142154 48.44263666 -26.95029875 44.39280852 -26.96687698 40.34269714 C-26.98138015 36.53386065 -26.97119505 32.72585227 -26.9424057 28.91710472 C-26.93582582 27.52399759 -26.93763936 26.13082008 -26.94871902 24.73774147 C-27.00533086 16.8932183 -26.98399784 10.38112609 -21.28540039 4.51757812 C-14.98894092 -0.80408729 -7.90890397 -0.049719 0 0 Z M-8.28540039 18.51757812 C-8.28540039 48.87757813 -8.28540039 79.23757812 -8.28540039 110.51757812 C-5.94176293 107.39272818 -4.16749711 104.60936128 -2.35961914 101.19335938 C-1.80983398 100.16404297 -1.26004883 99.13472656 -0.69360352 98.07421875 C0.44287415 95.931552 1.57831119 93.78833295 2.71264648 91.64453125 C11.48927951 75.22538192 11.48927951 75.22538192 16.40209961 71.45507812 C22.30098112 69.78558336 28.83058563 69.22154602 34.52709961 71.89257812 C43.10727362 78.01267354 47.69366321 91.8318856 52.50366211 100.88476562 C56.06183862 107.54654984 59.75203947 114.0874897 63.71459961 120.51757812 C68.71330076 114.96878068 71.74041587 108.13081694 75.11694336 101.53320312 C78.54033026 95.05415885 81.43838829 89.9429819 88.71459961 87.51757812 C94.68961683 86.98280894 99.62708571 87.00477091 104.71459961 90.51757812 C107.69626153 93.9344377 109.90623163 97.44786034 112.02709961 101.44726562 C112.62780273 102.57261719 113.22850586 103.69796875 113.84741211 104.85742188 C114.46358398 106.02402344 115.07975586 107.190625 115.71459961 108.39257812 C116.94299401 110.70288474 118.17213992 113.01279196 119.40209961 115.32226562 C119.97444336 116.39831055 120.54678711 117.47435547 121.13647461 118.58300781 C122.93716415 121.9314435 124.79965055 125.23344048 126.71459961 128.51757812 C127.04459961 128.51757812 127.37459961 128.51757812 127.71459961 128.51757812 C127.71459961 92.21757812 127.71459961 55.91757812 127.71459961 18.51757812 C82.83459961 18.51757812 37.95459961 18.51757812 -8.28540039 18.51757812 Z M24.71459961 88.51757812 C24.22600464 89.42745483 24.22600464 89.42745483 23.72753906 90.35571289 C17.53844379 101.86701987 11.29369228 113.33985096 4.83959961 124.70507812 C3.7652852 126.60215937 2.69106298 128.49929283 1.61694336 130.39648438 C0.23783282 132.83197299 -1.14209504 135.26686398 -2.53100586 137.69677734 C-3.56323093 139.50641791 -4.58128385 141.32412318 -5.59790039 143.14257812 C-6.39647461 144.55410156 -6.39647461 144.55410156 -7.21118164 145.99414062 C-8.61180327 148.82723338 -8.61180327 148.82723338 -8.28540039 153.51757812 C14.48459961 153.51757812 37.25459961 153.51757812 60.71459961 153.51757812 C55.54606782 143.18051454 50.34939838 132.89294861 44.90209961 122.70507812 C44.56064911 122.06536072 44.21919861 121.42564331 43.86740112 120.76654053 C39.44791709 112.49505935 34.96232212 104.26748402 30.27709961 96.14257812 C29.82294678 95.35262451 29.36879395 94.5626709 28.90087891 93.7487793 C27.87051663 91.98611012 26.79788804 90.24822403 25.71459961 88.51757812 C25.38459961 88.51757812 25.05459961 88.51757812 24.71459961 88.51757812 Z M92.71459961 105.51757812 C90.3062074 109.99862651 87.90362632 114.48272278 85.50634766 118.96972656 C84.69022552 120.49531575 83.87252947 122.02006406 83.05322266 123.54394531 C81.87498565 125.73608063 80.70246544 127.93119018 79.53100586 130.12695312 C79.1643129 130.80626892 78.79761993 131.48558472 78.41981506 132.18548584 C75.15478796 138.08321511 75.15478796 138.08321511 75.46484375 144.50683594 C77.18738226 148.26665968 78.6539347 150.70510396 81.71459961 153.51757812 C87.88828651 155.53833229 94.77304505 154.63798611 101.15209961 154.26757812 C102.95075031 154.20733701 104.74959404 154.15259237 106.54858398 154.10351562 C110.9420411 153.97171269 115.32619857 153.76502646 119.71459961 153.51757812 C114.90103606 143.80455134 110.02379513 134.13269843 104.92211914 124.56738281 C104.27328204 123.34779405 103.62787562 122.12637503 102.9855957 120.90332031 C102.03255457 119.08859297 101.07006782 117.27917746 100.10522461 115.47070312 C99.54867187 114.42043945 98.99211914 113.37017578 98.41870117 112.28808594 C96.76425135 109.59830133 95.04111044 107.63570677 92.71459961 105.51757812 Z " fill="#000000" transform="translate(128.285400390625,101.482421875)"/>
<path d="M0 0 C1.13115234 0.82564453 1.13115234 0.82564453 2.28515625 1.66796875 C3.31640625 2.38984375 4.34765625 3.11171875 5.41015625 3.85546875 C17.60153509 14.6333544 23.88914646 29.75641955 25.28515625 45.66796875 C25.98522779 62.56856577 20.46230469 78.16747371 9.22265625 90.85546875 C-1.36880601 102.24539237 -15.53968942 108.79009119 -31.01953125 109.90625 C-48.99811375 110.27998421 -64.1986313 105.46059559 -77.5012207 92.97607422 C-89.69985706 81.02843861 -95.44372333 66.40465524 -96.08984375 49.48046875 C-95.75686026 32.96840517 -89.53554504 17.82796908 -78.09375 5.8828125 C-56.59648683 -14.1318808 -24.18598667 -16.7057846 0 0 Z M-68.58984375 23.10546875 C-75.95130384 33.34222855 -79.18507855 43.92432179 -77.28515625 56.515625 C-74.71793565 68.79708156 -67.95702055 78.44331713 -57.71484375 85.66796875 C-46.4340473 91.5474861 -35.53841609 93.52735887 -23.15234375 90.10546875 C-11.45590075 86.15115528 -2.42284803 78.53752529 3.09765625 67.48046875 C7.79970954 56.20799664 8.60919347 44.86326772 3.984375 33.4609375 C-1.51986234 21.92621791 -8.87932185 14.35549188 -20.77734375 9.23046875 C-38.1465171 3.5392928 -57.06651937 8.88519611 -68.58984375 23.10546875 Z " fill="#000000" transform="translate(137.71484375,334.33203125)"/>
<path d="M0 0 C0.9715654 -0.00571014 1.9431308 -0.01142029 2.94413757 -0.01730347 C4.01377747 -0.01842133 5.08341736 -0.01953918 6.18547058 -0.02069092 C7.87098274 -0.02813828 7.87098274 -0.02813828 9.59054565 -0.03573608 C13.32165633 -0.05038559 17.05272449 -0.05716445 20.78385925 -0.06268311 C23.36977134 -0.06843237 25.95568341 -0.07419013 28.54159546 -0.07995605 C33.27531624 -0.08912845 38.00901994 -0.09542545 42.74274808 -0.09845281 C49.7083559 -0.10293196 56.67376732 -0.12047215 63.63931543 -0.1494534 C69.6727921 -0.17368462 75.70617596 -0.18139764 81.73970604 -0.18312836 C84.3061753 -0.18615938 86.87264363 -0.19420297 89.43908119 -0.20731354 C93.02787333 -0.22433755 96.61618588 -0.22250237 100.20500183 -0.21600342 C101.26856903 -0.2252182 102.33213623 -0.23443298 103.42793274 -0.243927 C112.51286309 -0.19230039 112.51286309 -0.19230039 116.389328 3.14044189 C118.1192828 6.04991133 118.39596139 7.8154061 118.326828 11.20294189 C117.06909321 15.14384426 115.97360741 16.03495911 112.389328 18.14044189 C108.61869177 18.74247768 104.88084324 18.69697431 101.0690155 18.67388916 C99.92539551 18.68250473 98.78177551 18.6911203 97.60350037 18.69999695 C93.82354598 18.72269833 90.0443304 18.7159102 86.264328 18.70684814 C83.63786091 18.7120816 81.0113957 18.71835706 78.38493347 18.72563171 C72.88046453 18.7374743 67.37620615 18.73179168 61.87174988 18.71685791 C55.51345058 18.69993048 49.15583752 18.71578144 42.79761314 18.74808079 C36.67382398 18.77800778 30.55034861 18.77995949 24.42649841 18.7705822 C21.82374682 18.76976119 19.22098108 18.77665302 16.61827087 18.79135323 C12.98154963 18.80874492 9.34630205 18.79429896 5.7096405 18.77154541 C4.63208496 18.78323761 3.55452942 18.79492981 2.44432068 18.80697632 C-4.85628025 18.71389836 -4.85628025 18.71389836 -8.77888489 15.73210144 C-11.61008694 11.72644391 -11.29877225 9.95714367 -10.610672 5.14044189 C-7.45686013 1.04048646 -5.02872879 0.01765909 0 0 Z " fill="#000000" transform="translate(300.6106719970703,109.85955810546875)"/>
<path d="M0 0 C3.17325421 2.4100635 5.95817928 5.16234108 8.77734375 7.97265625 C9.58869278 8.76973495 10.40004181 9.56681366 11.23597717 10.38804626 C12.94251608 12.07370486 14.64246724 13.76605568 16.33618164 15.46459961 C18.9292605 18.05427132 21.55737116 20.6043522 24.18945312 23.15429688 C25.84602568 24.79979551 27.50039974 26.44751099 29.15234375 28.09765625 C29.9397142 28.85426041 30.72708466 29.61086456 31.53831482 30.39039612 C34.88427759 33.80838067 37.49528424 36.59492298 37.99462891 41.48413086 C37.39319533 47.54290348 33.11431096 51.11827097 28.93359375 55.15625 C28.10674576 55.98459351 27.27989777 56.81293701 26.42799377 57.66638184 C24.67913298 59.40823694 22.91922218 61.13905868 21.14916992 62.859375 C18.44463468 65.49305224 15.78237033 68.16450929 13.12304688 70.84375 C11.41642656 72.53364081 9.70751587 74.22122235 7.99609375 75.90625 C7.20101913 76.70405884 6.40594452 77.50186768 5.58677673 78.32385254 C-0.69017831 84.36470929 -0.69017831 84.36470929 -4.88647461 85.08398438 C-8.53635915 84.98553222 -10.16593863 84.2672491 -13 82 C-15.35620437 78.46569344 -15.48991613 77.16428713 -15 73 C-12.26081037 68.33756674 -8.96672538 64.69635541 -5.140625 60.9453125 C-4.59138367 60.39890106 -4.04214233 59.85248962 -3.47625732 59.28952026 C-1.73885208 57.56321695 0.00541079 55.84403982 1.75 54.125 C2.9366601 52.94838261 4.12286268 51.77130361 5.30859375 50.59375 C8.20046788 47.72380355 11.09850916 44.86022237 14 42 C8.3869612 35.1720585 2.10881935 29.05974405 -4.20654297 22.8894043 C-5.6160248 21.51014945 -7.01904102 20.12429705 -8.421875 18.73828125 C-9.25299805 17.92399658 -10.08412109 17.10971191 -10.94042969 16.27075195 C-14.02561976 12.86921653 -15.04029882 11.12836683 -14.875 6.5 C-13.92256805 2.69027219 -13.07793835 1.35371756 -10 -1 C-6.10818514 -2.29727162 -3.59407844 -1.74723364 0 0 Z " fill="#000000" transform="translate(441,146)"/>
<path d="M0 0 C1.875 1.0625 1.875 1.0625 3 3 C4.6853866 9.85390551 4.6853866 9.85390551 2.34887695 13.76098633 C-0.03775642 17.22727072 -2.86191125 20.11602567 -5.859375 23.0546875 C-6.40861633 23.60109894 -6.95785767 24.14751038 -7.52374268 24.71047974 C-9.26114792 26.43678305 -11.00541079 28.15596018 -12.75 29.875 C-13.9366601 31.05161739 -15.12286268 32.22869639 -16.30859375 33.40625 C-19.20046788 36.27619645 -22.09850916 39.13977763 -25 42 C-19.3869612 48.8279415 -13.10881935 54.94025595 -6.79345703 61.1105957 C-5.3839752 62.48985055 -3.98095898 63.87570295 -2.578125 65.26171875 C-1.74700195 66.07600342 -0.91587891 66.89028809 -0.05957031 67.72924805 C3.02561976 71.13078347 4.04029882 72.87163317 3.875 77.5 C2.89044665 81.43821339 2.43953029 82.85029357 -1 85 C-5.14884619 85.952164 -8.61162416 85.86820857 -12.26980591 83.58059692 C-14.70132823 81.4900515 -16.95005609 79.29728952 -19.19140625 77.00390625 C-20.43747902 75.77074928 -20.43747902 75.77074928 -21.70872498 74.51268005 C-23.45500089 72.772515 -25.19001671 71.02098615 -26.91430664 69.2590332 C-29.5543074 66.57084214 -32.23887056 63.93403829 -34.93164062 61.29882812 C-36.62528897 59.59923228 -38.31614319 57.89684655 -40.00390625 56.19140625 C-40.80687637 55.40665421 -41.6098465 54.62190216 -42.43714905 53.81336975 C-45.79370375 50.32668183 -48.49826713 47.44574764 -49.01269531 42.49780273 C-48.39671904 36.42101938 -44.01087311 32.85544087 -39.79296875 28.84375 C-38.95663406 28.01540649 -38.12029938 27.18706299 -37.25862122 26.33361816 C-34.58863654 23.70065851 -31.8884489 21.10114534 -29.1875 18.5 C-27.38021816 16.72072173 -25.57485595 14.93949137 -23.77148438 13.15625 C-22.05116838 11.46702797 -20.32921793 9.77946853 -18.60546875 8.09375 C-17.78974899 7.29594116 -16.97402924 6.49813232 -16.1335907 5.67614746 C-15.37302872 4.94448364 -14.61246674 4.21281982 -13.82885742 3.45898438 C-13.16045334 2.81328491 -12.49204926 2.16758545 -11.8033905 1.50231934 C-7.95493499 -1.70364694 -4.64825092 -0.99605377 0 0 Z " fill="#000000" transform="translate(82,145)"/>
<path d="M0 0 C4.596825 3.51710564 7.4389019 8.37920571 9.25 13.8125 C10.07259039 22.84924305 9.76530724 30.3568678 4.25 37.8125 C-0.79234514 43.37253971 -5.46214525 46.32986232 -13.046875 47.18359375 C-21.03653047 47.33724097 -27.25710299 46.75092811 -33.75 41.8125 C-39.36532686 36.22101741 -42.79399962 29.31900903 -43.125 21.375 C-42.78141179 13.37626645 -40.20153878 7.37033362 -34.71875 1.5390625 C-24.57264167 -7.35891345 -11.05682708 -7.09939439 0 0 Z M-22.75 15.8125 C-24.49693992 18.19469081 -24.77276273 19.35724533 -24.625 22.3125 C-23.51307812 25.48941965 -22.50310837 26.85634405 -19.75 28.8125 C-16.25 29.5625 -16.25 29.5625 -12.75 28.8125 C-9.78864454 26.23080549 -8.88243896 24.62368865 -8.25 20.75 C-8.87137115 17.09944451 -9.77944298 15.98020377 -12.75 13.8125 C-17.04806222 12.15939915 -19.1864238 13.01942676 -22.75 15.8125 Z " fill="#000000" transform="translate(212.75,132.1875)"/>
<path d="M0 0 C7.81468504 4.91113964 11.71364118 11.27701411 13.83984375 20.15625 C14.6669261 26.89106344 13.06314553 33.72718931 9.36328125 39.43359375 C4.2300917 45.72702477 -2.06565008 49.43297203 -10.16796875 50.39453125 C-17.94278911 50.6670803 -23.98575804 48.1926564 -30.47265625 44.03125 C-36.29973945 37.79762611 -38.47539988 32.091436 -38.72265625 23.53125 C-38.35702001 14.43604858 -36.33805396 9.98053435 -29.78515625 3.78125 C-22.01241227 -3.11259713 -9.4817705 -4.32994171 0 0 Z M-18.59765625 17.71875 C-20.76411653 21.09842804 -20.72303627 23.21608987 -20.16015625 27.15625 C-18.23033208 29.87229883 -16.8181485 30.90317606 -13.72265625 32.09375 C-10.24733935 32.17851383 -8.81549627 31.38099434 -6.16015625 29.15625 C-4.50156025 26.34728937 -4.50156025 26.34728937 -4.16015625 23.15625 C-5.49142072 20.22746816 -6.8932059 18.42320035 -9.16015625 16.15625 C-13.01522387 15.72790915 -15.2881599 15.59727798 -18.59765625 17.71875 Z " fill="#000000" transform="translate(422.16015625,359.84375)"/>
<path d="M0 0 C5.44535124 3.86311711 10.12090454 9.0148848 12.0703125 15.46875 C13.05756269 24.56184388 12.86260651 32.97944007 7.0703125 40.46875 C1.47041607 46.08058651 -5.41757976 49.51251634 -13.3671875 49.84375 C-21.36462671 49.50021739 -27.37751286 46.92266654 -33.203125 41.43359375 C-37.90900323 36.07826174 -39.54620067 30.30361831 -40.2421875 23.34375 C-39.54443119 14.69157173 -36.54752425 7.87976712 -30.05078125 2.0625 C-21.65164338 -4.24845442 -9.32165028 -4.81561269 0 0 Z M-19.3046875 17.15625 C-21.1796061 19.82440339 -21.9296875 21.19418795 -21.9296875 24.46875 C-20.09918633 28.27619242 -19.01532635 30.07607212 -14.9921875 31.53125 C-11.38462851 31.45762635 -9.76304982 30.65448664 -6.9296875 28.46875 C-5.38381874 25.37701248 -5.63609229 22.87445448 -5.9296875 19.46875 C-7.34635417 16.88541667 -7.34635417 16.88541667 -9.9296875 15.46875 C-13.91421734 14.89953145 -15.98462498 14.79725821 -19.3046875 17.15625 Z " fill="#000000" transform="translate(115.9296875,360.53125)"/>
<path d="M0 0 C5.74045092 4.36612565 9.52606592 10.59515878 11.12109375 17.61328125 C12.05571623 24.88256724 10.74538568 31.69767107 6.64453125 37.81640625 C1.90484988 43.65984903 -3.51095914 47.06745705 -10.87890625 48.61328125 C-19.2498211 49.1808009 -26.57964323 47.30079705 -33.30859375 42.13671875 C-39.10135749 36.51687333 -41.00720552 30.36372771 -41.25390625 22.48828125 C-41.17790415 14.9640735 -39.2666149 9.41137741 -34.234375 3.76953125 C-24.73928446 -4.97538284 -11.31565018 -6.59615076 0 0 Z M-22.87890625 19.61328125 C-23.6290582 22.65636416 -23.6290582 22.65636416 -22.87890625 25.61328125 C-20.94250083 28.26687387 -19.50032002 29.37427595 -16.44140625 30.55078125 C-13.06010874 30.63325192 -11.54803881 29.63316535 -8.87890625 27.61328125 C-6.58154035 24.80593652 -6.58154035 24.80593652 -7.00390625 21.67578125 C-8.01861977 18.12428392 -8.86245413 16.73295031 -11.87890625 14.61328125 C-17.31157453 13.57298307 -19.66457521 15.26448043 -22.87890625 19.61328125 Z " fill="#000000" transform="translate(219.87890625,361.38671875)"/>
<path d="M0 0 C5.87733166 3.42603077 10.59613122 8.33305247 13.02734375 14.796875 C14.71216316 22.42729679 14.334314 30.12232902 10.69140625 37.078125 C6.89139176 43.00863941 0.70394203 47.57121884 -6 49.75 C-15.56028142 50.46702111 -22.62811413 49.58500869 -30.3125 43.4375 C-36.06565025 37.95591453 -38.54069542 31.25276952 -39 23.375 C-38.59768557 15.63391551 -35.12916698 8.1995474 -29.5 2.9375 C-20.7331378 -3.357942 -9.89504127 -4.48555335 0 0 Z M-19.5 19.9375 C-20.66448881 22.84101124 -20.66448881 22.84101124 -20.5 25.9375 C-18.55673841 29.43537086 -17.3359715 30.67625891 -13.5 31.875 C-10.36841304 31.9402414 -9.02193396 31.7388814 -6.5 29.9375 C-4.15450326 26.41925489 -3.92008597 25.07974306 -4.5 20.9375 C-6.98602449 17.57405511 -8.41425523 16.13692251 -12.5625 15.375 C-16.21255579 16.07394685 -17.35564611 16.91952045 -19.5 19.9375 Z " fill="#000000" transform="translate(319.5,360.0625)"/>
<path d="M0 0 C0.82148529 -0.00571014 1.64297058 -0.01142029 2.48934937 -0.01730347 C3.38708069 -0.01842133 4.28481201 -0.01953918 5.20974731 -0.02069092 C6.15800385 -0.02565582 7.10626038 -0.03062073 8.08325195 -0.03573608 C11.22454551 -0.05035782 14.36578858 -0.05715944 17.5071106 -0.06268311 C19.68802899 -0.06843416 21.86894736 -0.0741919 24.04986572 -0.07995605 C28.62464636 -0.09046581 33.19940942 -0.09630877 37.77420044 -0.09979248 C43.63768943 -0.10527978 49.50094651 -0.1293131 55.36436272 -0.15776443 C59.86992066 -0.17638198 64.37542261 -0.18159593 68.88101578 -0.18312836 C71.04277948 -0.18615696 73.20454215 -0.19419247 75.36626816 -0.20731354 C78.38979533 -0.22435672 81.41275417 -0.22249798 84.43630981 -0.21600342 C85.32999268 -0.2252182 86.22367554 -0.23443298 87.1444397 -0.243927 C91.86359425 -0.21215225 95.1894775 -0.0445498 98.9524231 3.14044189 C100.50233451 6.77936435 101.23272165 9.01924768 100.2649231 12.89044189 C98.97022005 15.10993282 97.92746282 16.51377481 95.9524231 18.14044189 C94.00427437 18.52355194 94.00427437 18.52355194 91.75299072 18.53485107 C90.89784882 18.54620087 90.04270691 18.55755066 89.16165161 18.56924438 C87.7589502 18.56484848 87.7589502 18.56484848 86.32791138 18.56036377 C84.84700516 18.57306808 84.84700516 18.57306808 83.33618164 18.58602905 C80.06490274 18.60947283 76.79409223 18.61041936 73.5227356 18.60919189 C71.2521343 18.61628956 68.98153481 18.62398798 66.7109375 18.63226318 C61.94779477 18.64572538 57.18481783 18.64726916 52.42166138 18.64141846 C46.3158208 18.6355242 40.21077586 18.66609531 34.10508919 18.70653534 C29.41420196 18.73237909 24.72350705 18.73529267 20.03255844 18.73164368 C17.78147254 18.73333838 15.53037809 18.74301435 13.27936172 18.76078796 C10.13094052 18.78290864 6.98413926 18.77330952 3.83572388 18.75567627 C2.90463806 18.76893951 1.97355225 18.78220276 1.01425171 18.79586792 C-3.53677761 18.73660598 -5.43400193 18.62026551 -9.12597656 15.73309326 C-12.07859753 11.74937374 -11.74152104 9.99805086 -11.0475769 5.14044189 C-8.00050834 1.04266003 -4.97188126 0.02073048 0 0 Z " fill="#000000" transform="translate(301.0475769042969,143.85955810546875)"/>
<path d="M0 0 C0.67369629 -0.0049649 1.34739258 -0.00992981 2.04150391 -0.01504517 C4.26351962 -0.029614 6.48546396 -0.03645957 8.70751953 -0.04199219 C10.25684612 -0.04774755 11.8061727 -0.05350523 13.35549927 -0.05926514 C16.60191173 -0.06975979 19.84829953 -0.07561264 23.09472656 -0.07910156 C27.24635879 -0.08458615 31.39766303 -0.10861968 35.54919243 -0.13707352 C38.74916526 -0.15573277 41.94905955 -0.16090722 45.14908218 -0.16243744 C46.67923909 -0.16545657 48.20939486 -0.1734601 49.73949814 -0.18662262 C51.88387513 -0.20375426 54.02745659 -0.20178619 56.171875 -0.1953125 C57.39002899 -0.19895813 58.60818298 -0.20260376 59.86325073 -0.20635986 C63.62598274 0.20615294 66.00919806 1.17254621 69.21533203 3.16113281 C71.37284738 6.39740583 71.46896723 6.99692119 71.09033203 10.66113281 C71.02587891 11.43457031 70.96142578 12.20800781 70.89501953 13.00488281 C69.96073789 15.96881077 68.90832761 16.61615291 66.21533203 18.16113281 C63.64748275 18.45589438 61.32277441 18.58170559 58.75634766 18.56518555 C57.63857185 18.57548042 57.63857185 18.57548042 56.49821472 18.58598328 C54.03914244 18.60425964 51.58070755 18.60041319 49.12158203 18.59472656 C47.41052035 18.59928761 45.6994605 18.60459296 43.98840332 18.61061096 C40.40397698 18.61954341 36.81977343 18.61711705 33.23535156 18.60717773 C28.64170106 18.59568115 24.04881847 18.61590899 19.45526886 18.64509487 C15.9224967 18.66343837 12.38990926 18.66316826 8.85710144 18.65745735 C7.16341575 18.65730394 5.46971769 18.6633643 3.77607727 18.67574883 C1.40833287 18.69062465 -0.95798393 18.6800089 -3.32568359 18.6628418 C-4.02502518 18.67250977 -4.72436676 18.68217773 -5.44490051 18.69213867 C-8.82078721 18.64087473 -10.5189207 18.36786494 -13.21765137 16.26844788 C-15.50573319 13.19144838 -15.34648759 11.00350163 -15.17529297 7.28613281 C-14.78466797 5.16113281 -14.78466797 5.16113281 -13.03466797 2.66113281 C-8.86345947 -0.11967285 -4.93714601 0.02770991 0 0 Z " fill="#000000" transform="translate(304.78466796875,177.8388671875)"/>
<path d="M0 0 C1.70857178 -0.00361794 1.70857178 -0.00361794 3.45166016 -0.00730896 C5.85908491 -0.00632978 8.26653197 0.00708047 10.67382812 0.03198242 C14.36145419 0.06628026 18.04668359 0.05264571 21.734375 0.03320312 C24.07292688 0.0401016 26.41147257 0.04977398 28.75 0.0625 C29.85424316 0.05754013 30.95848633 0.05258026 32.09619141 0.04747009 C33.63799072 0.07122459 33.63799072 0.07122459 35.2109375 0.09545898 C36.56517822 0.10475685 36.56517822 0.10475685 37.94677734 0.11424255 C41.134807 0.78994794 42.34741953 2.13322919 44.375 4.62890625 C45.10848174 7.69227114 44.94869881 10.53888496 44.375 13.62890625 C42.17668636 16.661063 40.92536806 17.44545023 37.375 18.62890625 C35.88282531 18.72997609 34.38665186 18.7772015 32.89111328 18.79003906 C31.53422897 18.80445038 31.53422897 18.80445038 30.14993286 18.81915283 C29.17490814 18.82340271 28.19988342 18.82765259 27.1953125 18.83203125 C25.68794022 18.84058136 25.68794022 18.84058136 24.15011597 18.8493042 C22.02342786 18.85875202 19.89672513 18.86528732 17.77001953 18.86914062 C14.51959667 18.87884773 11.26980574 18.9098741 8.01953125 18.94140625 C5.95312875 18.94793631 3.88672174 18.95318677 1.8203125 18.95703125 C0.36384811 18.97555145 0.36384811 18.97555145 -1.12203979 18.9944458 C-7.43590972 18.97364366 -11.03466702 18.21923923 -15.625 13.62890625 C-16.28287891 6.94047062 -16.28287891 6.94047062 -14.32275391 3.03271484 C-10.03254168 -0.79003897 -5.55546419 -0.06670225 0 0 Z " fill="#000000" transform="translate(305.625,212.37109375)"/>
<path d="M0 0 C1.12792969 -0.02771484 2.25585938 -0.05542969 3.41796875 -0.08398438 C11.3544487 -0.06050367 11.3544487 -0.06050367 14.39453125 1.92456055 C16.3193334 4.06793618 17.39686318 6.07405078 17.875 8.91796875 C17.32309001 11.79824902 16.83804443 14.21116467 15.125 16.625 C10.46360369 19.67283605 4.90309263 18.87157874 -0.4375 18.875 C-1.43974609 18.88724609 -2.44199219 18.89949219 -3.47460938 18.91210938 C-4.92383789 18.91500977 -4.92383789 18.91500977 -6.40234375 18.91796875 C-7.28398193 18.92207764 -8.16562012 18.92618652 -9.07397461 18.93041992 C-11.71857772 18.66561363 -13.27745449 18.13084791 -15.5 16.6875 C-17.61212504 13.51931244 -17.83156464 11.55530748 -18.05859375 7.8203125 C-15.73959933 -1.03402981 -7.42956461 -0.09764571 0 0 Z " fill="#000000" transform="translate(307.5,246.3125)"/>
</svg>
